<?xml version="1.0" standalone="no"?>
<!DOCTYPE svg PUBLIC "-//W3C//DTD SVG 20010904//EN"
 "http://www.w3.org/TR/2001/REC-SVG-20010904/DTD/svg10.dtd">
<svg version="1.0" xmlns="http://www.w3.org/2000/svg"
 width="1200.000000pt" height="1202.000000pt" viewBox="0 0 1200.000000 1202.000000"
 preserveAspectRatio="xMidYMid meet">

<g transform="translate(0.000000,1202.000000) scale(0.100000,-0.100000)"
fill="#000000" stroke="none">
<path d="M6550 10120 c0 -5 10 -15 23 -21 22 -12 22 -12 3 10 -21 23 -26 26
-26 11z"/>
<path d="M6700 10065 c0 -3 14 -19 30 -35 17 -16 30 -33 30 -39 0 -15 -32 -22
-49 -10 -9 6 -1 -2 17 -20 20 -19 27 -31 17 -31 -21 0 -7 -30 19 -40 17 -7 17
-9 4 -9 -12 -1 -15 -6 -11 -18 4 -11 3 -14 -6 -9 -10 6 -9 3 0 -12 17 -27 7
-37 -20 -22 -12 6 -21 7 -21 3 0 -9 -167 -7 -214 2 -16 3 -36 10 -45 14 -9 5
-25 7 -36 5 -11 -2 -42 4 -70 14 -53 17 -58 19 -118 28 -42 7 -92 -10 -101
-33 -5 -12 -2 -13 11 -8 34 15 116 13 150 -3 30 -14 35 -14 43 -2 8 12 10 9
10 -10 0 -18 3 -21 9 -11 7 11 10 9 16 -8 3 -12 9 -20 13 -18 4 2 15 -4 25
-15 16 -17 16 -18 -10 -18 -16 0 -35 -4 -43 -10 -9 -5 -19 -5 -27 2 -21 17
-139 2 -178 -22 -40 -25 -52 -26 -34 -3 11 13 6 12 -21 -4 -19 -12 -37 -28
-39 -35 -2 -7 6 -4 18 6 14 13 25 16 31 10 7 -7 0 -20 -20 -38 -27 -24 -30
-30 -18 -44 12 -16 11 -16 -6 -2 -17 13 -21 12 -43 -15 -48 -58 -67 -76 -97
-92 -61 -32 -193 -152 -266 -243 -41 -51 -74 -97 -72 -102 1 -5 -6 -26 -17
-46 -55 -107 -103 -233 -121 -319 -21 -100 -24 -133 -11 -98 5 11 6 -37 4
-107 -4 -89 -2 -128 6 -128 6 0 10 -3 9 -7 -1 -5 4 -28 12 -53 7 -25 13 -51
13 -57 0 -19 37 -50 37 -32 0 8 7 4 16 -9 8 -12 20 -20 25 -16 5 3 9 2 8 -3
-2 -4 2 -19 8 -33 6 -14 19 -44 28 -67 10 -23 21 -40 25 -38 5 3 19 -8 32 -23
14 -17 42 -33 70 -41 32 -9 60 -28 94 -63 37 -38 43 -49 27 -43 -16 4 -23 2
-23 -8 0 -10 -8 -13 -25 -9 -25 4 -45 22 -26 22 25 0 9 20 -16 21 -28 0 -28 1
-5 11 12 6 22 14 22 19 0 4 -10 5 -22 2 -18 -4 -20 -2 -8 6 12 8 9 12 -13 20
-16 6 -37 11 -47 11 -31 0 -69 -50 -80 -107 -6 -29 -16 -53 -21 -53 -5 0 -9
-8 -10 -17 0 -10 -7 -2 -14 17 -20 51 -18 29 6 -63 25 -98 89 -258 100 -251 5
3 6 -1 3 -9 -9 -24 115 -188 171 -226 11 -8 2 5 -19 27 -44 46 -43 69 1 28 15
-14 31 -26 36 -26 4 0 6 -4 3 -9 -3 -4 20 -11 52 -15 45 -5 63 -13 89 -38 21
-20 33 -27 33 -17 0 12 2 12 10 -1 5 -9 5 -19 -2 -27 -14 -17 -9 -16 34 6 27
13 34 21 25 30 -13 13 -13 16 -32 138 -7 50 -18 99 -23 109 -5 9 -7 26 -4 37
4 16 1 18 -17 12 -20 -6 -21 -4 -16 22 5 21 4 24 -4 13 -10 -13 -11 -13 -12 0
-2 28 3 65 10 73 4 4 14 -5 22 -20 7 -16 22 -39 31 -53 10 -14 19 -36 21 -50
3 -18 10 -25 26 -24 27 1 28 -16 1 -23 -11 -3 -20 -13 -20 -23 0 -13 6 -16 25
-13 20 4 25 13 31 49 6 44 7 45 30 29 24 -16 33 -8 14 11 -8 8 -2 10 20 9 30
-2 39 8 19 21 -6 3 -15 2 -21 -4 -6 -6 -17 -8 -24 -5 -8 3 -14 0 -14 -6 0 -6
-7 -8 -15 -5 -8 4 -15 1 -15 -5 0 -6 -4 -11 -10 -11 -5 0 -10 10 -10 21 0 19
-2 20 -17 8 -15 -13 -16 -11 -10 18 5 27 4 31 -9 26 -16 -6 -34 12 -34 32 0 6
4 4 9 -4 6 -10 10 -10 16 -1 6 9 10 9 17 -1 6 -10 7 -6 2 11 -4 14 -11 28 -16
31 -5 3 -3 9 6 12 9 4 16 14 16 24 0 15 -2 16 -10 3 -8 -12 -10 -11 -10 6 0
11 -5 25 -12 32 -9 9 -7 17 8 33 10 13 13 19 7 15 -8 -4 -13 -1 -13 8 0 26 12
46 24 39 6 -4 5 1 -3 10 -12 15 -12 17 3 11 15 -6 20 5 19 44 -1 6 4 12 9 12
5 0 8 6 6 12 -3 7 1 19 9 26 7 7 14 25 14 40 2 40 3 44 24 85 10 20 23 37 28
37 5 0 6 11 3 25 -5 18 -2 25 8 25 8 0 18 5 22 12 4 7 3 8 -4 4 -7 -4 -4 7 6
23 9 17 23 31 31 31 8 0 12 -3 8 -6 -3 -4 7 -18 23 -32 17 -15 30 -34 30 -44
0 -24 40 -35 52 -14 6 11 17 14 32 10 13 -3 27 -1 30 5 11 16 46 13 46 -4 0
-8 -9 -15 -19 -15 -17 0 -19 -6 -15 -50 3 -38 1 -52 -10 -56 -9 -3 -12 -12 -8
-22 5 -15 4 -15 -11 -3 -9 7 -17 9 -17 3 0 -5 -9 -12 -20 -15 -11 -3 -20 -13
-20 -22 0 -9 -8 -29 -18 -43 -18 -26 -35 -63 -32 -71 1 -2 -2 -7 -8 -10 -5 -3
-12 -21 -15 -39 -5 -25 -3 -34 9 -39 13 -5 13 -7 2 -14 -9 -6 -10 -11 -2 -16
6 -5 14 -32 17 -60 5 -43 3 -54 -11 -62 -9 -6 -13 -11 -8 -11 5 0 3 -7 -4 -15
-19 -23 14 -31 45 -11 29 19 57 22 30 3 -21 -16 -12 -37 16 -37 10 0 18 -3 18
-7 -3 -21 2 -33 16 -33 17 0 20 11 5 26 -6 6 -6 15 1 24 8 13 12 12 28 -7 12
-15 21 -19 28 -12 14 14 23 -2 16 -29 -7 -28 -19 -28 -34 0 -9 17 -13 19 -20
6 -11 -19 0 -60 14 -51 6 4 8 0 4 -10 -3 -9 -2 -19 4 -22 5 -4 6 -11 3 -17 -4
-6 -1 -14 6 -18 9 -6 7 -10 -9 -15 -14 -4 -21 -15 -21 -33 l0 -27 25 30 c13
17 24 24 25 16 0 -28 30 11 30 40 0 39 37 72 73 65 35 -8 87 -15 65 -9 -10 2
-18 13 -18 24 0 23 15 25 24 3 5 -13 9 -13 37 3 17 10 35 26 40 36 5 9 15 17
22 17 7 0 6 -4 -3 -10 -13 -9 -13 -10 0 -10 9 0 21 5 27 11 11 11 53 -7 53
-23 0 -4 7 -5 15 -2 24 10 45 -21 45 -65 0 -24 5 -41 11 -41 26 0 -6 -115 -60
-220 -10 -19 -17 -46 -15 -59 3 -17 0 -22 -11 -17 -8 3 -15 1 -15 -4 0 -6 4
-10 10 -10 5 0 0 -16 -12 -35 -11 -20 -18 -39 -14 -42 3 -4 6 -1 6 5 0 17 27
15 33 -2 4 -10 1 -13 -7 -10 -8 3 -16 -4 -19 -15 -3 -13 -1 -19 5 -15 6 4 6
-1 0 -13 -6 -11 -11 -43 -10 -71 0 -41 3 -50 15 -45 12 5 14 0 8 -25 -4 -21
-3 -32 4 -32 6 0 11 5 11 10 0 6 4 10 9 10 13 0 8 -74 -6 -83 -6 -4 -23 -3
-38 3 -34 13 -32 13 -38 -10 -3 -11 -19 -25 -36 -31 -18 -6 -28 -16 -24 -22 4
-6 -2 -8 -16 -4 -30 8 -51 -1 -51 -22 0 -13 2 -13 9 -2 13 20 23 -3 12 -31 -7
-17 -10 -19 -10 -5 -1 14 -6 16 -28 11 -23 -6 -25 -4 -20 15 4 17 1 21 -19 21
-16 0 -24 -6 -24 -17 0 -15 -1 -15 -13 2 -8 10 -19 15 -25 11 -15 -9 -117 34
-149 63 -49 44 -168 65 -198 35 -11 -12 -14 -19 -6 -22 6 -2 8 -8 5 -14 -4 -6
-1 -13 5 -17 20 -13 1 -42 -23 -36 -11 2 -15 2 -8 -1 14 -7 17 -64 3 -64 -5 0
-11 8 -13 18 -3 12 -9 5 -23 -23 -10 -22 -27 -51 -37 -64 l-18 -24 0 24 c0 17
-3 20 -11 12 -8 -8 -8 -17 1 -33 13 -24 2 -39 -30 -41 -11 0 -10 -2 3 -8 17
-6 16 -8 -8 -19 -24 -11 -27 -11 -22 3 4 8 2 15 -3 15 -6 0 -10 -10 -10 -21 0
-16 -3 -19 -13 -11 -10 8 -13 4 -13 -21 0 -40 -3 -49 -35 -113 -24 -49 -24
-53 -10 -85 9 -19 19 -36 22 -39 3 -3 16 -27 27 -54 22 -49 21 -96 -2 -96 -13
0 -17 -71 -5 -80 3 -3 10 -16 14 -29 6 -20 4 -23 -9 -18 -9 4 -16 2 -16 -3 0
-6 9 -10 20 -10 13 0 17 -5 14 -14 -3 -8 0 -24 6 -36 8 -15 8 -20 1 -16 -7 5
-9 1 -5 -8 3 -9 10 -16 14 -16 14 0 6 -54 -9 -66 -12 -9 -10 -11 13 -9 27 3
27 3 10 -16 -15 -16 -15 -19 -2 -19 20 0 31 -40 16 -57 -7 -9 -6 -14 6 -19 9
-3 14 -9 13 -13 -4 -6 29 -41 38 -41 3 0 8 0 11 0 4 0 -5 -9 -20 -21 -14 -11
-31 -17 -37 -14 -5 4 -19 -1 -29 -10 -11 -10 -32 -18 -48 -19 -15 -1 -40 -9
-55 -19 -30 -19 -41 -22 -32 -6 5 7 2 7 -11 0 -34 -18 -106 -31 -176 -31 -20
0 -40 -5 -43 -10 -4 -6 -11 -8 -16 -4 -5 3 -16 0 -24 -6 -10 -9 -15 -9 -15 -1
0 7 -8 8 -26 1 -14 -6 -65 -13 -113 -16 -47 -3 -102 -7 -121 -10 -43 -6 -41
-6 -115 2 -33 3 -62 9 -65 13 -3 5 -21 12 -40 16 -40 8 -86 54 -100 100 -10
30 -10 30 -5 -5 6 -41 10 -60 17 -80 3 -8 11 -35 19 -60 7 -25 17 -51 22 -57
5 -7 7 -13 4 -13 -3 0 1 -20 9 -45 7 -25 10 -45 7 -45 -3 0 -1 -6 4 -12 13
-16 33 -74 39 -111 3 -15 16 -52 30 -82 13 -30 19 -55 14 -55 -6 0 -10 -7 -10
-15 0 -8 -7 -15 -15 -15 -8 0 -15 -4 -15 -10 0 -5 -5 -10 -12 -10 -9 0 -9 3
-1 11 14 14 6 37 -20 64 -11 11 -17 15 -14 9 4 -7 0 -15 -9 -18 -24 -9 -31 -7
-14 4 13 9 13 10 0 11 -8 1 -25 0 -37 -1 -13 -1 -23 4 -23 10 0 7 7 9 16 6 14
-5 15 -4 5 8 -7 8 -20 12 -28 9 -12 -5 -15 -2 -10 10 4 11 1 17 -8 17 -20 0
-30 -21 -14 -31 11 -7 11 -9 -3 -9 -25 0 -33 19 -13 34 15 11 15 13 -4 30 -11
10 -18 23 -15 28 4 5 -8 2 -26 -7 -30 -15 -34 -15 -49 -1 -13 14 -14 20 -2 37
13 22 13 22 -18 0 -35 -26 -37 -29 -15 -27 9 0 19 -4 21 -10 4 -13 -45 -16
-53 -3 -3 5 1 19 8 31 19 35 17 58 -6 69 -20 9 -20 9 -3 -4 14 -11 15 -16 5
-20 -10 -4 -10 -8 2 -16 13 -9 8 -15 -11 -13 -4 1 -6 -4 -6 -11 1 -41 -4 -57
-20 -57 -13 0 -14 3 -5 12 17 17 15 23 -15 37 -23 11 -29 10 -39 -4 -7 -9 -10
-24 -7 -33 4 -13 1 -13 -11 2 -12 14 -13 23 -5 33 9 10 7 13 -9 13 -15 0 -20
5 -16 15 4 9 0 15 -9 15 -10 0 -13 -7 -10 -19 3 -10 -1 -22 -8 -27 -9 -5 -11
-2 -6 9 4 11 -1 18 -14 22 -10 4 -17 11 -13 16 6 11 -23 38 -41 39 -5 0 -3 -5
5 -11 11 -8 12 -12 3 -16 -7 -2 -13 -13 -13 -23 0 -10 -4 -21 -9 -25 -6 -3 -7
9 -4 31 5 32 4 36 -11 31 -12 -5 -19 1 -26 19 -6 15 -15 22 -21 18 -6 -4 -7
-9 -2 -13 12 -8 14 -53 2 -46 -16 11 -10 -7 9 -22 16 -14 16 -14 0 -9 -10 3
-18 2 -18 -3 0 -16 27 -31 44 -25 9 3 16 2 16 -4 0 -6 -6 -13 -12 -15 -8 -3
-5 -6 5 -6 10 -1 15 -6 12 -11 -4 -6 -12 -7 -18 -3 -7 4 -6 -1 2 -11 11 -13
11 -16 1 -14 -7 2 -16 -9 -21 -25 -4 -15 -3 -27 2 -27 8 0 13 15 10 33 -2 16
8 5 23 -23 13 -27 13 -30 -1 -30 -12 0 -10 -5 7 -20 15 -13 18 -20 9 -20 -12
0 -12 -2 0 -9 8 -5 9 -11 3 -15 -14 -8 -5 -64 13 -82 20 -20 19 -34 -2 -34
-15 0 -16 -2 -3 -10 8 -5 11 -12 7 -16 -3 -4 -15 -1 -24 7 -16 13 -17 12 -4
-3 7 -10 21 -18 30 -19 10 0 12 -2 3 -6 -6 -2 -10 -8 -7 -13 3 -5 -4 -11 -15
-15 -11 -3 -20 -11 -20 -16 0 -13 9 -11 26 6 19 19 44 19 44 1 0 -8 6 -16 13
-19 6 -2 4 -3 -5 -2 -25 4 -32 -12 -9 -20 10 -3 21 -17 24 -30 5 -28 -17 -65
-30 -51 -4 5 -2 11 5 13 17 6 15 23 -3 23 -8 0 -15 -8 -16 -17 0 -14 -2 -15
-6 -3 -3 8 -12 19 -20 24 -8 4 -22 24 -30 44 -11 27 -17 32 -24 21 -7 -11 -9
-11 -9 -1 0 8 -5 10 -12 6 -8 -5 -9 -2 -5 9 3 10 2 17 -3 17 -6 0 -10 7 -10
16 0 8 5 12 10 9 6 -3 10 -2 10 3 0 13 -29 36 -37 29 -3 -4 -12 1 -19 11 -12
15 -15 15 -23 2 -6 -8 -13 -11 -17 -7 -4 4 3 19 17 34 13 15 16 21 7 14 -13
-10 -18 -10 -18 -2 0 7 -4 9 -10 6 -5 -3 -15 -3 -21 1 -8 4 -7 9 2 15 9 5 6
11 -14 20 -15 7 -27 16 -27 20 0 4 -12 9 -27 11 -18 2 -29 10 -31 22 -3 11 0
16 7 12 6 -4 11 -3 11 3 0 5 -5 13 -10 16 -6 3 -10 1 -10 -4 0 -6 -7 -11 -15
-11 -18 0 -20 20 -2 20 6 1 -3 7 -20 15 -25 10 -31 18 -26 31 5 13 3 16 -10
11 -11 -4 -17 -1 -17 8 0 7 -15 17 -32 20 -45 10 -61 24 -48 40 8 9 8 15 0 20
-6 4 -9 1 -8 -6 2 -7 -6 -12 -19 -12 -65 2 -74 4 -68 13 4 6 -5 5 -19 -2 -27
-12 -31 -19 -18 -32 4 -4 7 -11 7 -14 0 -4 11 -25 24 -47 27 -44 38 -95 22
-95 -6 0 -11 4 -11 10 0 5 -11 12 -25 16 -16 4 -25 13 -25 26 0 11 -8 22 -20
25 -11 3 -20 9 -20 15 0 5 -20 28 -45 52 -25 25 -45 49 -45 55 0 6 -4 11 -10
11 -10 0 24 -74 48 -102 8 -9 11 -22 7 -27 -3 -6 -2 -11 3 -11 5 0 16 -14 23
-32 10 -24 10 -33 1 -36 -7 -2 -12 -10 -12 -18 0 -9 -4 -13 -9 -9 -6 3 -8 -3
-6 -15 2 -11 -1 -23 -7 -26 -7 -5 -8 -2 -3 6 6 10 3 12 -13 8 -19 -5 -20 -3
-11 13 13 25 -2 24 -29 -1 -23 -22 -37 -27 -26 -9 11 18 -59 0 -73 -19 -12
-14 -13 -13 -13 5 0 12 6 24 13 26 9 4 9 6 -1 6 -17 1 -75 -39 -68 -46 3 -3
-6 -16 -20 -30 -21 -21 -27 -23 -42 -12 -9 7 -14 9 -10 5 4 -5 3 -15 -3 -23
-6 -7 -8 -13 -3 -13 4 0 -3 -11 -16 -25 -13 -14 -20 -25 -16 -25 5 0 3 -7 -4
-15 -6 -8 -9 -18 -6 -23 3 -6 -3 -12 -14 -15 -14 -3 -18 -11 -15 -27 4 -23
-10 -43 -35 -48 -24 -5 -36 -22 -16 -22 15 0 16 -3 6 -15 -6 -8 -9 -19 -5 -25
4 -7 -2 -14 -14 -17 -14 -3 -21 -13 -21 -29 0 -13 -16 -49 -35 -79 -20 -30
-32 -54 -28 -53 17 6 17 -26 0 -44 -28 -29 -48 -68 -35 -68 8 0 9 -3 3 -8 -6
-4 -16 -19 -24 -34 -11 -22 -12 -30 -1 -43 8 -10 9 -15 1 -15 -6 0 -11 -9 -11
-20 0 -11 -6 -20 -12 -20 -8 -1 -7 -5 4 -14 16 -11 15 -14 -7 -39 -15 -16 -21
-28 -14 -32 7 -5 6 -11 -2 -21 -7 -8 -7 -14 -1 -14 5 0 9 -11 8 -24 0 -13 -4
-22 -7 -20 -4 2 -14 -5 -24 -16 -16 -18 -16 -20 -2 -26 9 -3 21 -3 27 1 15 9
12 -1 -6 -19 -8 -9 -11 -16 -5 -16 6 0 8 -7 4 -16 -5 -13 -8 -13 -15 -2 -6 9
-7 6 -3 -9 4 -15 2 -23 -5 -23 -8 0 -10 -8 -7 -22 3 -11 -1 -34 -9 -50 -8 -15
-11 -28 -6 -28 4 0 8 -18 8 -39 -1 -22 -5 -37 -10 -33 -5 3 -7 -4 -4 -15 3
-11 1 -27 -3 -36 -5 -9 -6 -18 -1 -21 4 -2 7 -25 6 -50 -1 -34 1 -43 12 -39
10 4 14 -3 14 -21 0 -23 -9 -31 -32 -27 -5 0 -8 -3 -8 -9 0 -14 33 -13 48 2 9
9 12 8 12 -5 0 -12 -8 -17 -27 -17 -20 0 -24 -3 -16 -11 8 -8 17 -8 33 1 12 6
25 9 28 5 10 -9 -29 -36 -41 -28 -6 3 -7 1 -3 -5 4 -7 3 -12 -3 -12 -5 0 -8
-8 -6 -17 1 -12 10 -17 26 -15 17 1 20 -1 11 -7 -11 -7 -11 -9 2 -14 10 -4 13
-13 9 -23 -5 -14 -2 -16 16 -11 18 4 22 2 19 -16 -2 -16 -10 -22 -28 -21 -14
1 -17 -1 -7 -3 9 -3 17 -11 17 -20 0 -9 6 -13 15 -9 9 3 20 -3 27 -14 7 -11
18 -20 25 -20 7 0 13 -11 13 -25 0 -14 5 -25 12 -25 6 0 4 -6 -7 -13 -10 -8
-15 -19 -11 -25 3 -6 -5 -19 -19 -30 -17 -14 -25 -30 -25 -52 0 -25 -3 -31
-16 -26 -10 4 -13 2 -8 -6 4 -6 -1 -17 -11 -25 -11 -7 -15 -13 -10 -13 4 0 0
-9 -10 -20 -17 -19 -12 -26 18 -21 5 1 5 -3 2 -9 -4 -6 -14 -9 -22 -6 -10 4
-13 2 -10 -8 7 -19 -29 -76 -48 -76 -9 0 -13 -5 -10 -10 4 -6 11 -7 17 -4 7 4
8 2 4 -5 -4 -6 -15 -10 -24 -9 -11 2 -18 -6 -22 -27 -3 -16 -11 -29 -18 -27
-7 1 -12 -7 -12 -18 0 -12 -7 -20 -17 -20 -23 -1 -63 -34 -63 -53 0 -8 -7 -17
-15 -21 -8 -3 -12 -11 -10 -18 3 -7 -8 -20 -24 -29 -18 -11 -31 -28 -36 -47
-3 -17 -13 -36 -21 -43 -8 -6 -14 -17 -14 -24 0 -6 -11 -17 -24 -25 -23 -12
-40 -42 -37 -66 1 -5 -8 -20 -19 -32 -11 -12 -20 -25 -20 -31 0 -5 -7 -11 -14
-14 -8 -3 -18 -22 -22 -41 -3 -21 -12 -36 -20 -36 -8 0 -14 -9 -14 -20 0 -11
-18 -39 -40 -61 -39 -40 -50 -56 -30 -44 6 3 7 -1 4 -9 -3 -9 -9 -14 -13 -12
-4 3 -8 -3 -9 -12 -1 -9 -3 -26 -4 -37 -2 -11 -12 -29 -24 -40 -12 -11 -21
-27 -22 -35 -2 -21 -13 -72 -19 -90 -12 -32 -14 -91 -2 -84 8 4 8 1 2 -12 -11
-22 -3 -65 12 -66 6 0 9 -4 7 -10 -1 -5 2 -7 7 -4 5 4 29 9 53 12 66 9 114 23
218 64 133 53 206 58 234 16 15 -24 14 -26 -15 -56 -17 -17 -53 -42 -78 -55
-26 -13 -67 -41 -92 -63 -24 -22 -54 -48 -66 -58 -24 -20 -123 -180 -123 -198
0 -7 -9 -18 -20 -26 -11 -8 -20 -18 -20 -23 0 -5 -9 -20 -20 -34 -12 -15 -17
-30 -12 -37 5 -6 9 -24 10 -39 1 -15 6 -37 12 -47 5 -10 10 -32 10 -49 0 -17
4 -31 8 -31 9 0 42 -92 42 -116 0 -7 11 -37 24 -66 13 -29 31 -74 41 -100 10
-26 24 -53 31 -59 8 -6 14 -17 14 -23 0 -48 329 -404 440 -475 56 -36 165
-140 156 -148 -3 -3 2 -12 12 -20 26 -22 -8 -4 -45 23 -17 13 -34 24 -37 24
-3 0 -14 6 -23 14 -41 33 -112 85 -132 95 -19 11 -21 9 -22 -16 0 -15 -2 -70
-5 -120 l-5 -93 4411 0 4410 0 0 494 0 495 -52 5 c-80 7 -314 26 -398 31 -41
3 -104 7 -140 10 -36 2 -137 9 -225 15 -88 5 -221 14 -295 20 -74 5 -182 12
-240 15 -58 3 -136 7 -175 10 -38 2 -115 7 -170 10 -140 8 -523 35 -565 41
-19 2 -116 8 -215 14 -99 5 -218 12 -264 15 l-83 7 6 31 c4 18 24 47 50 71 53
51 81 103 106 204 10 42 19 74 19 70 1 -3 27 3 59 14 73 26 141 24 882 -31 74
-6 200 -15 280 -21 80 -5 161 -12 180 -14 19 -3 112 -8 205 -11 214 -8 225 -9
425 -28 256 -25 401 -31 433 -18 27 10 28 14 22 51 -7 42 -4 46 24 31 16 -9
55 -18 87 -20 6 -1 9 -11 7 -25 -4 -17 0 -25 16 -29 l21 -5 0 2603 0 2602 -39
7 c-21 3 -73 18 -116 32 -93 31 -139 70 -181 150 -16 31 -33 65 -39 75 -13 25
-45 25 -45 -1 0 -10 -9 -24 -19 -30 -11 -5 -24 -25 -30 -43 -17 -49 -87 -107
-130 -107 -25 0 -38 -20 -20 -30 10 -7 10 -11 0 -24 -9 -11 -10 -16 -2 -16 6
0 18 -15 27 -33 12 -26 22 -34 43 -34 47 0 81 -12 75 -27 -3 -8 2 -28 11 -45
14 -29 14 -31 -2 -32 -16 0 -16 -1 -1 -7 15 -7 15 -8 0 -27 -9 -11 -30 -26
-47 -33 -16 -8 -43 -20 -58 -28 -16 -8 -39 -14 -52 -14 -13 0 -26 -4 -29 -9
-3 -5 -22 -12 -41 -15 -20 -4 -33 -11 -30 -17 4 -5 -4 -10 -17 -10 -13 -1 -32
-3 -43 -5 -74 -15 -200 -22 -217 -13 -11 6 -26 8 -33 5 -8 -3 -17 -1 -20 4 -7
11 -65 8 -65 -3 0 -5 -53 -6 -117 -3 -184 10 -439 9 -457 -2 -5 -3 -52 -6
-104 -8 -125 -3 -257 -22 -307 -44 -23 -9 -65 -23 -94 -30 -29 -7 -55 -19 -58
-26 -3 -8 -13 -14 -22 -14 -10 0 -26 -6 -37 -14 -11 -9 -29 -12 -43 -9 -17 4
-22 2 -17 -6 4 -6 1 -11 -8 -11 -9 0 -16 -4 -16 -9 0 -16 -30 -21 -55 -9 -13
6 -22 15 -19 19 8 14 -29 -2 -51 -21 -29 -25 -126 -20 -185 10 -58 29 -150
107 -150 127 0 9 -10 26 -22 39 -13 12 -33 36 -46 53 -29 38 -45 38 -142 5
-100 -34 -202 -42 -255 -20 -68 29 -115 68 -163 135 -138 197 -172 219 -208
139 -10 -24 -27 -52 -36 -62 -10 -11 -18 -23 -18 -28 0 -23 -112 -130 -148
-141 -15 -5 -67 -12 -117 -17 -49 -4 -157 -15 -240 -24 -82 -8 -221 -20 -308
-25 -109 -8 -164 -15 -180 -26 -13 -8 -27 -12 -30 -8 -4 3 -7 1 -7 -4 0 -6 3
-13 8 -15 7 -3 49 -57 91 -118 86 -124 116 -174 177 -298 63 -128 73 -142 125
-180 30 -23 95 -78 143 -124 95 -88 285 -222 459 -321 59 -33 129 -80 156
-104 26 -23 51 -40 53 -38 3 3 13 -4 23 -15 10 -11 28 -20 39 -20 26 0 82 -59
78 -83 -2 -10 4 -20 15 -24 10 -3 38 -22 61 -42 40 -32 43 -38 38 -69 -6 -37
9 -76 25 -67 5 4 9 -1 9 -10 0 -12 5 -15 16 -11 9 3 25 0 35 -8 11 -8 29 -11
40 -9 23 6 48 -21 49 -52 1 -20 1 -20 15 -1 8 11 15 14 15 8 0 -7 6 -12 14
-12 8 0 16 -6 19 -12 3 -10 7 -10 20 1 14 11 17 11 17 0 0 -11 2 -11 9 -1 6
10 13 11 34 1 15 -7 24 -16 21 -20 -17 -29 51 -79 108 -79 18 0 51 -7 73 -15
22 -8 54 -14 71 -15 37 0 44 -13 49 -83 4 -48 26 -84 45 -72 5 3 10 -1 10 -9
0 -9 5 -16 10 -16 6 0 10 -6 10 -12 0 -7 9 -24 20 -38 21 -27 26 -65 10 -75
-5 -3 -10 -17 -10 -29 0 -42 -77 -54 -170 -27 -53 15 -72 29 -63 44 11 18 12
57 2 57 -6 0 -7 -5 -4 -10 3 -5 1 -10 -4 -10 -6 0 -11 9 -11 21 0 13 -8 23
-21 26 -16 5 -19 11 -14 35 8 33 -8 58 -36 58 -11 0 -19 5 -19 11 0 6 -5 7
-12 2 -23 -14 -33 -9 -44 22 -9 25 -16 29 -38 27 -14 -2 -26 0 -25 5 3 20 -2
27 -11 13 -8 -12 -10 -12 -11 5 0 20 -1 20 -8 1 -7 -18 -9 -16 -24 13 -9 19
-14 38 -11 43 10 16 -6 58 -21 58 -8 0 -15 -4 -15 -10 0 -5 -4 -10 -10 -10 -5
0 -10 11 -10 25 0 14 -3 26 -7 26 -46 8 -53 6 -47 -15 5 -17 0 -14 -24 11 -20
21 -33 29 -38 22 -3 -6 0 -16 7 -21 12 -8 11 -9 -1 -5 -8 2 -16 10 -16 18 -1
8 -2 18 -3 24 0 5 -6 4 -12 -2 -9 -9 -2 -29 29 -80 46 -77 75 -150 104 -262
29 -114 29 -110 34 -346 3 -140 10 -242 19 -280 45 -191 58 -241 64 -250 3 -5
6 -19 7 -30 1 -11 10 -58 19 -105 23 -110 23 -112 24 -195 l1 -71 34 -12 c49
-18 86 -50 86 -75 0 -18 -11 -26 -51 -40 -32 -12 -53 -26 -59 -40 -5 -12 -9
-17 -9 -12 -1 6 -3 78 -6 160 -6 156 -28 286 -80 470 -14 50 -30 116 -37 147
-6 32 -15 58 -18 58 -4 0 -10 -23 -14 -51 -4 -28 -10 -49 -13 -45 -3 3 0 40 6
82 13 80 17 401 6 456 -4 18 -15 52 -26 75 -10 24 -19 49 -19 57 0 8 -7 21
-15 30 -9 8 -14 20 -13 27 2 6 -3 14 -11 17 -10 3 -11 0 -5 -9 7 -12 5 -12 -9
0 -20 15 -47 100 -47 145 0 37 -13 25 -30 -29 l-13 -40 -12 36 c-7 19 -16 54
-20 78 -8 49 -26 38 -24 -14 2 -64 -1 -95 -12 -95 -5 0 -7 5 -4 10 3 6 1 10
-4 10 -6 0 -11 -7 -11 -16 0 -8 -4 -13 -8 -10 -4 2 -14 1 -22 -5 -12 -7 -12
-9 4 -9 13 0 16 -5 12 -16 -4 -9 -1 -24 6 -32 9 -10 9 -13 1 -9 -6 4 -18 0
-26 -8 -9 -8 -21 -15 -28 -15 -10 0 -10 -3 -1 -12 15 -15 16 -32 2 -23 -5 3
-10 -2 -11 -12 -1 -15 -2 -14 -7 3 -6 19 -9 20 -20 8 -7 -8 -9 -14 -3 -14 5 0
8 -11 7 -25 0 -14 -2 -25 -3 -25 -4 0 -33 64 -33 72 0 5 4 7 9 3 5 -3 12 -1
16 5 3 5 -6 12 -21 16 -19 5 -22 9 -12 15 11 8 11 11 -1 18 -8 5 -11 16 -8 25
4 9 2 16 -3 16 -5 0 -5 13 0 30 5 19 5 30 -1 30 -6 0 -8 13 -6 29 3 17 -1 39
-11 52 -8 12 -10 19 -3 15 8 -6 10 -1 6 16 -3 12 -7 34 -7 48 -1 14 -7 28 -13
32 -6 5 -3 8 8 8 22 0 22 11 -3 38 -12 12 -16 22 -10 22 17 0 6 25 -11 26 -30
2 -33 6 -14 14 14 6 15 9 5 9 -21 1 -87 -62 -82 -77 2 -7 -6 -12 -17 -12 -12
0 -21 -4 -21 -10 0 -5 5 -10 11 -10 5 0 7 -5 4 -11 -4 -6 -13 -8 -20 -5 -14 5
-14 -11 0 -45 4 -11 -2 -20 -23 -28 -23 -10 -28 -18 -27 -42 1 -16 -2 -29 -7
-29 -4 0 -8 -7 -8 -16 0 -8 -7 -22 -15 -30 -13 -14 -15 -13 -16 3 -1 10 -1 24
0 31 1 6 -3 12 -9 12 -5 0 -10 5 -10 11 0 5 4 8 8 5 5 -3 7 13 5 35 -2 25 1
38 7 34 6 -4 7 2 1 17 -6 16 -4 27 5 36 8 7 11 19 7 25 -4 7 2 5 12 -3 16 -13
18 -13 13 0 -6 17 17 81 34 91 6 4 7 12 2 20 -4 8 -7 26 -6 40 2 14 -6 51 -18
82 -17 45 -26 57 -43 58 -55 1 -100 9 -134 25 -21 9 -54 23 -72 32 -41 17
-110 85 -146 141 -13 22 -41 48 -61 57 -29 14 -33 19 -20 26 13 8 14 13 4 31
-7 12 -13 28 -14 36 -2 7 -12 23 -23 35 -12 12 -21 26 -21 32 0 5 5 2 10 -6 7
-10 10 -11 10 -2 0 7 -6 15 -14 18 -9 3 -14 18 -14 36 1 18 -6 36 -15 43 -9 7
-14 14 -12 17 3 3 -2 22 -12 44 -9 21 -16 45 -14 53 1 8 -2 10 -9 6 -9 -5 -10
-1 -5 14 5 16 2 21 -12 21 -13 0 -14 3 -6 8 10 6 10 12 -2 28 -8 10 -15 26
-15 35 0 8 -9 25 -20 37 -11 12 -20 28 -20 36 0 8 -8 22 -17 32 -10 10 -16 18
-14 18 3 1 -16 34 -42 73 -74 113 -151 185 -222 205 -22 7 -43 16 -46 21 -4 5
-9 5 -13 -1 -3 -6 3 -14 15 -17 14 -5 18 -12 14 -23 -4 -10 -8 -30 -11 -46 -5
-44 -20 -52 -38 -24 -14 21 -15 33 -5 75 9 38 9 54 0 69 -9 13 -11 14 -8 3 3
-9 0 -25 -7 -35 -7 -11 -16 -31 -20 -46 -3 -16 -11 -28 -17 -28 -6 0 -7 -4 -4
-10 3 -5 1 -10 -4 -10 -6 0 -11 -7 -11 -15 0 -8 -4 -15 -9 -15 -4 0 -7 -11 -5
-26 2 -19 -1 -23 -10 -15 -9 7 -17 5 -28 -7 -8 -9 -23 -21 -32 -27 -9 -5 -18
-18 -20 -27 -1 -9 -10 -26 -20 -37 -15 -17 -16 -23 -6 -36 8 -9 8 -15 2 -15
-6 0 -21 -18 -33 -40 -13 -22 -28 -40 -34 -40 -14 0 -11 -99 4 -128 6 -11 10
-25 10 -29 -1 -4 1 -16 5 -25 10 -22 -12 -61 -30 -54 -8 3 -14 1 -14 -5 0 -17
-52 -31 -77 -20 -16 7 -23 7 -23 0 0 -6 -3 -8 -8 -6 -4 3 -27 6 -52 8 -25 2
-48 7 -51 12 -4 5 -12 6 -19 2 -9 -6 -9 -9 1 -16 10 -6 10 -9 2 -9 -6 0 -15 5
-18 10 -4 6 -21 8 -40 4 -19 -3 -41 -1 -52 6 -16 9 -15 10 7 4 24 -6 24 -6 5
9 -11 8 -23 13 -27 11 -5 -3 -8 0 -8 7 0 7 -10 9 -25 7 -13 -3 -22 -2 -20 3 3
4 -3 9 -12 12 -17 4 -16 5 1 12 13 6 32 2 57 -12 21 -11 40 -18 43 -15 3 2 -9
12 -27 21 -17 9 -31 22 -30 28 2 7 -13 15 -32 19 -35 6 -49 24 -19 24 11 0 14
6 9 21 -6 18 -4 20 14 14 13 -4 29 -1 38 7 10 7 14 8 10 1 -5 -7 0 -9 13 -6
11 3 20 0 20 -6 0 -6 8 -11 18 -11 13 0 10 6 -13 25 -16 13 -24 24 -17 25 6 0
12 -5 12 -11 0 -5 4 -8 9 -4 5 3 13 0 17 -6 7 -13 54 36 54 56 0 17 31 28 44
15 15 -15 22 -13 55 23 26 26 30 38 25 64 -7 37 4 63 17 42 6 -10 9 -8 9 9 0
12 5 22 10 22 7 0 7 6 0 20 -6 11 -16 19 -23 17 -6 -1 -13 8 -15 21 -4 24 8
28 39 12 12 -7 25 -7 35 -2 12 7 6 10 -26 15 -52 7 -59 13 -34 32 15 11 16 17
6 23 -7 5 -10 16 -6 25 3 9 2 17 -4 17 -6 0 -13 -6 -15 -12 -3 -7 -6 0 -6 15
-1 26 0 27 15 13 17 -18 44 -21 44 -6 0 6 -4 10 -10 10 -17 0 -11 24 13 50 12
15 30 24 40 22 9 -2 17 1 17 7 0 8 31 24 52 26 3 0 10 3 14 8 4 4 20 7 36 7
19 0 28 -5 28 -17 0 -21 11 -11 14 13 2 10 9 20 16 22 9 3 11 -1 7 -11 -3 -9
-2 -19 4 -22 5 -4 12 1 15 9 3 9 25 27 48 41 24 15 34 25 24 25 -10 0 -18 5
-18 10 0 6 5 10 10 10 6 0 10 7 10 16 0 11 6 15 20 11 10 -3 19 -2 18 2 -2 18
3 24 11 12 6 -9 9 -5 9 14 0 15 6 31 13 36 11 7 9 9 -6 10 -11 0 -2 6 20 13
30 9 39 17 37 30 -2 11 1 15 7 11 6 -3 11 -2 11 3 0 5 18 17 40 27 21 10 61
41 88 69 53 56 79 93 44 62 -12 -11 -22 -16 -22 -12 0 12 -44 -16 -63 -41 -10
-12 -24 -23 -30 -23 -8 0 -8 3 -2 8 6 4 16 15 24 25 12 16 12 17 -5 11 -15 -6
-17 -4 -7 6 9 10 9 16 -2 26 -7 8 -20 14 -27 14 -10 -1 -9 -4 2 -13 20 -16 24
-57 6 -57 -8 0 -16 7 -20 15 -3 8 -12 15 -21 15 -8 0 -15 5 -15 10 0 6 6 10
14 10 7 0 16 10 20 23 8 32 7 47 -4 47 -5 0 -10 -9 -10 -20 0 -22 -15 -27 -26
-9 -3 6 -1 16 5 22 6 6 11 20 11 30 0 10 9 21 19 24 18 5 31 21 37 50 1 6 -4
9 -11 6 -18 -6 -59 32 -50 46 3 6 21 11 40 11 19 0 45 5 59 12 23 10 24 12 9
23 -15 11 -14 14 7 25 20 11 22 10 17 -4 -9 -24 6 -25 27 -3 16 17 17 19 3 14
-31 -12 -17 10 34 56 36 32 56 43 71 39 19 -5 21 -2 15 31 -3 22 -2 37 4 37 5
0 -9 17 -31 39 l-41 39 18 36 17 37 18 -23 c10 -13 18 -31 18 -40 0 -22 16
-23 24 -2 9 23 7 72 -3 78 -5 3 -21 31 -35 62 -27 56 -29 104 -5 104 6 0 6 7
-1 20 -6 11 -15 18 -20 15 -6 -4 -7 7 -4 24 8 40 -17 51 -59 26 -18 -11 -45
-18 -62 -17 -31 3 -75 37 -75 59 0 7 -7 13 -15 13 -8 0 -15 5 -15 11 0 6 9 8
21 4 15 -5 19 -4 15 4 -4 6 -14 11 -22 11 -10 0 -7 8 11 26 14 14 29 23 34 20
12 -8 22 46 25 137 3 84 18 115 40 85 7 -10 16 -15 19 -12 3 3 4 -2 3 -11 -3
-21 21 -71 53 -107 20 -22 27 -25 48 -17 31 12 53 33 53 53 0 8 14 24 31 36
16 12 28 28 25 35 -3 8 2 19 10 26 10 8 11 16 5 22 -7 7 -7 16 0 29 5 10 8 22
5 26 -5 9 103 13 117 5 5 -3 -1 -11 -13 -18 l-23 -12 21 -12 c12 -6 22 -16 22
-21 0 -6 13 -22 29 -38 16 -15 33 -40 36 -55 8 -32 25 -36 25 -6 0 11 4 18 10
14 5 -3 6 -13 3 -23 -5 -14 -3 -15 7 -5 10 9 14 51 15 159 0 80 -1 141 -3 135
-2 -7 -13 -5 -30 5 -25 15 -25 15 -8 0 28 -23 15 -20 -41 9 -30 16 -73 28
-115 32 -82 7 -80 20 7 51 70 24 95 27 95 12 0 -5 7 -10 15 -10 8 0 15 -4 15
-10 0 -5 9 -10 20 -10 11 0 20 -5 20 -12 0 -6 3 -8 6 -5 4 4 1 14 -7 23 -13
16 -12 16 9 5 15 -8 22 -21 23 -44 0 -31 0 -32 10 -7 15 37 7 179 -10 190 -9
5 -15 29 -16 67 -1 70 5 96 17 67 4 -11 6 20 3 71 -3 50 -5 116 -4 149 0 42
-5 64 -18 79 -15 17 -15 19 -2 15 16 -6 20 16 7 38 -4 6 -4 20 -1 33 5 21 6
21 26 4 19 -17 20 -17 14 0 -4 9 -2 17 4 17 7 0 8 -12 4 -30 -4 -20 -3 -30 5
-30 7 0 10 -6 7 -12 -2 -7 -1 -22 4 -33 6 -17 8 -16 9 10 1 17 1 40 0 53 -1
12 3 22 9 22 6 0 11 5 11 11 0 5 -5 7 -12 3 -7 -5 -8 -3 -4 5 6 9 13 8 28 -6
30 -27 41 -53 41 -98 0 -22 2 -30 4 -17 6 32 29 27 40 -10 5 -18 15 -32 21
-31 16 4 26 -40 19 -88 -3 -22 -1 -37 4 -33 5 3 9 20 10 37 l1 32 13 -40 13
-40 1 38 c1 46 0 40 13 79 5 18 13 47 18 63 l8 30 1 -37 c1 -35 21 -57 21 -23
0 8 5 15 11 15 8 0 10 -14 5 -42 -4 -27 -3 -37 3 -28 13 23 23 180 11 180 -6
0 -8 -12 -5 -27 4 -23 4 -25 -4 -8 -5 11 -10 29 -10 40 -1 12 -10 38 -21 60
-11 22 -20 46 -19 55 0 13 1 13 7 0 14 -32 38 -57 58 -62 19 -5 17 0 -12 43
-18 27 -38 65 -45 84 -7 19 -17 35 -21 35 -4 0 -8 5 -8 11 0 6 9 8 21 4 15 -5
19 -4 15 4 -4 6 -2 11 4 11 6 0 13 -7 16 -15 4 -8 16 -14 28 -14 17 1 17 2 3
6 -9 2 -15 9 -12 14 4 5 1 9 -6 9 -7 0 -10 2 -8 4 4 5 45 -3 99 -18 l25 -7
-25 15 c-22 13 -23 15 -7 21 28 11 19 24 -10 16 -17 -5 -52 -2 -88 6 -33 8
-69 15 -79 16 -10 1 -37 18 -58 39 -22 21 -44 38 -49 38 -5 0 -9 5 -9 12 0 6
-10 23 -22 36 l-23 25 42 -6 c24 -3 46 -1 49 4 3 5 11 6 17 2 7 -5 26 -8 42
-9 17 0 75 -4 130 -8 55 -5 97 -5 93 -1 -4 4 -24 9 -45 11 -21 2 -90 13 -153
24 -63 11 -135 23 -160 26 -54 7 -61 13 -54 41 8 28 77 41 200 38 51 -1 99 2
106 6 9 6 5 9 -11 9 -24 0 -24 0 -5 15 18 14 17 14 -13 15 -17 0 -34 -4 -38
-9 -7 -12 -65 4 -78 21 -6 9 -7 8 -3 -5 5 -16 0 -17 -62 -12 -37 4 -78 8 -91
11 -32 7 -91 53 -91 71 0 9 -6 13 -13 10 -8 -3 -20 -2 -27 3 -20 12 24 23 73
18 23 -3 34 -3 24 -1 -15 4 -16 7 -5 21 11 14 11 14 -6 5 -16 -9 -101 -1 -113
11 -5 5 91 31 97 25 3 -2 4 -7 3 -11 -2 -5 2 -8 8 -8 6 0 9 6 6 14 -6 14 50
36 91 36 11 0 24 5 28 11 4 7 -2 10 -17 8 -13 -2 -30 0 -36 4 -7 5 -13 4 -13
-1 0 -12 -46 -32 -75 -32 -13 0 -27 -4 -30 -10 -3 -5 -26 -10 -50 -10 -27 0
-47 -5 -52 -14 -4 -8 -29 -17 -55 -21 -44 -7 -46 -6 -41 14 3 12 13 22 22 23
9 1 23 2 31 4 8 1 24 2 35 3 15 1 17 3 6 10 -7 5 -10 14 -7 20 4 6 3 11 -3 11
-5 0 -14 -7 -18 -15 -5 -9 -13 -11 -22 -5 -12 7 -12 13 4 37 15 24 11 22 -23
-11 -25 -24 -45 -35 -53 -31 -7 5 -10 4 -6 -2 8 -12 -16 -25 -53 -29 -24 -3
-24 -2 -5 12 11 8 20 18 21 22 3 23 20 45 41 53 13 5 27 19 32 31 11 28 -3 48
-21 30 -7 -7 -21 -12 -33 -12 -12 0 -27 -6 -34 -12 -10 -11 -11 -9 -6 7 6 17
3 16 -15 -5 l-21 -25 4 34 4 33 -18 -23 c-10 -13 -21 -32 -25 -41 -3 -10 -9
-18 -14 -18 -5 0 -7 7 -4 15 4 8 0 23 -7 32 -10 12 -10 15 -1 9 6 -4 12 -3 12
2 0 8 -22 22 -36 22 -2 0 -4 -8 -4 -17 0 -15 -2 -16 -10 -3 -8 13 -11 12 -24
-5 -9 -11 -16 -25 -16 -31 0 -16 -48 -46 -61 -39 -5 4 -9 3 -8 -2 3 -20 -2
-24 -17 -12 -13 10 -17 10 -26 -2 -7 -10 -8 -9 -2 6 4 11 9 43 10 70 l2 50 -6
-45 -7 -45 -22 91 c-26 105 -41 149 -49 141 -4 -3 -24 13 -46 36 l-40 42 7
-45 7 -45 -31 35 c-16 19 -30 38 -31 42 0 3 -13 11 -30 17 -16 5 -30 17 -30
25 0 8 -15 24 -34 35 -36 23 -51 27 -41 11 3 -5 2 -10 -4 -10 -5 0 -13 5 -16
11 -4 6 -13 8 -20 5 -7 -2 -17 0 -23 6 -6 6 -12 6 -17 -3 -5 -7 -4 -10 2 -6 6
4 18 -4 27 -18 l16 -24 -49 24 c-27 14 -54 25 -59 25 -6 0 -17 8 -24 18 -14
20 -38 37 -38 27z m181 -72 c13 -16 12 -17 -3 -4 -10 7 -18 15 -18 17 0 8 8 3
21 -13z m-89 -8 c0 -5 -5 -11 -10 -13 -5 -1 -9 4 -9 13 0 9 4 14 9 13 5 -2 10
-8 10 -13z m189 -201 c17 -8 28 -18 25 -21 -7 -8 -66 17 -66 28 0 12 6 11 41
-7z m-821 -69 c0 -2 -10 -9 -22 -15 -22 -11 -22 -10 -4 4 21 17 26 19 26 11z
m63 -30 c-3 -9 -8 -14 -10 -11 -3 3 -2 9 2 15 9 16 15 13 8 -4z m-33 -9 c0 -2
-7 -7 -16 -10 -8 -3 -12 -2 -9 4 6 10 25 14 25 6z m555 -28 c28 -15 46 -27 41
-28 -15 0 -91 23 -100 32 -16 13 -36 9 -36 -7 0 -15 -32 -13 -90 4 -14 5 -50
7 -80 5 -30 -1 -45 0 -32 2 12 3 20 8 18 12 -2 4 48 7 112 7 108 0 121 -2 167
-27z m-392 15 c-7 -2 -19 -2 -25 0 -7 3 -2 5 12 5 14 0 19 -2 13 -5z m67 -13
c0 -12 -8 -12 -35 0 -18 8 -17 9 8 9 15 1 27 -3 27 -9z m-105 -20 c8 -7 15 -9
15 -5 0 4 8 1 17 -6 11 -10 14 -10 9 -1 -4 7 -2 12 4 12 28 0 0 -25 -31 -28
-19 -1 -43 -7 -54 -11 -37 -17 -55 -20 -55 -12 0 5 -11 9 -25 9 -16 0 -25 -6
-25 -17 0 -14 -2 -14 -9 -1 -15 22 -6 27 69 34 38 4 70 12 70 17 0 5 -14 7
-32 3 -85 -15 -122 -6 -50 12 45 12 78 10 97 -6z m1074 -56 c-12 -13 -24 -22
-28 -21 -3 0 -17 -5 -31 -12 -21 -11 -19 -7 10 22 46 46 60 64 61 79 1 7 4 0
6 -16 3 -19 -2 -35 -18 -52z m-853 59 c-11 -11 -48 -14 -41 -3 3 5 16 10 27
10 12 0 18 -3 14 -7z m-116 -13 c0 -5 -7 -10 -16 -10 -9 0 -12 -5 -8 -12 5
-10 3 -10 -7 0 -12 11 -12 14 1 22 19 13 30 12 30 0z m60 0 c0 -5 -12 -10 -27
-9 -25 0 -26 1 -8 9 27 12 35 12 35 0z m-200 -54 c0 -3 -7 -12 -16 -20 -11
-12 -20 -13 -33 -6 -12 6 -22 5 -29 -2 -9 -9 -12 -8 -12 4 0 9 5 18 12 20 18
6 78 9 78 4z m45 -26 c3 -5 -1 -10 -9 -10 -9 0 -16 5 -16 10 0 6 4 10 9 10 6
0 13 -4 16 -10z m-220 -10 c3 -5 -1 -10 -10 -10 -9 0 -13 5 -10 10 3 6 8 10
10 10 2 0 7 -4 10 -10z m206 -10 c30 0 22 -20 -8 -21 -16 -1 -32 0 -38 1 -5 2
-27 3 -47 2 -21 -1 -40 2 -42 6 -3 4 16 8 41 9 25 1 51 7 57 13 7 7 12 7 14 0
2 -5 12 -10 23 -10z m180 -122 c-23 -6 -37 -6 -44 1 -8 8 2 11 34 10 l44 -1
-34 -10z m-432 -12 c-2 -2 -24 -7 -49 -11 -31 -5 -42 -4 -35 3 6 6 26 12 45
14 35 3 47 1 39 -6z m331 -45 c0 -5 9 -7 19 -4 16 4 19 1 14 -16 -6 -22 12
-30 20 -8 4 9 6 9 6 -1 1 -17 -28 -27 -41 -14 -7 7 -17 8 -28 2 -9 -5 -25 -7
-36 -5 -10 2 -33 4 -51 4 -24 1 -30 5 -28 19 2 9 4 19 4 22 1 3 5 -1 9 -8 10
-14 92 -6 92 9 0 5 5 9 10 9 6 0 10 -4 10 -9z m1450 -12 c0 -5 -4 -9 -8 -9 -5
0 -9 7 -9 15 0 8 4 12 9 9 4 -3 8 -9 8 -15z m30 -49 c0 -5 -4 -10 -9 -10 -6 0
-13 5 -16 10 -3 6 1 10 9 10 9 0 16 -4 16 -10z m147 -66 c-3 -3 -12 -4 -19 -1
-8 3 -5 6 6 6 11 1 17 -2 13 -5z m-51 -45 c19 -22 19 -22 -3 -8 -13 8 -23 17
-23 21 0 12 6 9 26 -13z m-1842 5 c9 -3 16 -10 16 -14 0 -13 -37 -18 -51 -8
-10 7 -9 8 6 4 20 -6 20 -6 1 9 -16 12 -17 15 -4 15 9 0 23 -3 32 -6z m119
-21 c-7 -2 -19 -2 -25 0 -7 3 -2 5 12 5 14 0 19 -2 13 -5z m-68 -64 c-3 -4
-12 -6 -20 -3 -8 4 -13 10 -10 15 3 4 12 6 20 3 8 -4 13 -10 10 -15z m28 1 c3
-11 1 -20 -4 -20 -5 0 -9 9 -9 20 0 11 2 20 4 20 2 0 6 -9 9 -20z m-112 1 c-8
-5 -20 -7 -28 -4 -21 8 -15 13 15 13 20 0 23 -3 13 -9z m2045 -124 c12 -18 25
-44 29 -57 7 -22 6 -23 -9 -11 -9 7 -16 20 -16 27 0 8 -4 14 -8 14 -8 0 -32
43 -32 55 0 14 18 1 36 -28z m-961 -37 c35 13 122 13 130 -1 4 -6 13 -8 21 -5
7 3 18 -2 23 -11 5 -9 17 -18 27 -19 11 -1 29 -6 42 -9 17 -6 22 -3 23 11 1
17 2 17 6 1 2 -9 17 -24 33 -32 16 -8 37 -29 47 -45 10 -17 23 -28 30 -26 7 3
18 -4 24 -15 6 -13 16 -18 26 -15 20 8 63 -19 63 -39 0 -8 5 -15 10 -15 14 0
49 -78 50 -107 0 -13 5 -23 11 -23 6 0 9 -6 7 -12 -3 -7 4 -20 15 -28 13 -11
21 -33 25 -70 5 -50 4 -53 -16 -48 -18 5 -19 3 -11 -25 5 -17 6 -33 4 -36 -3
-2 -5 1 -5 7 0 7 -4 12 -10 12 -14 0 -12 -17 3 -32 8 -6 11 -22 9 -35 -4 -19
-1 -22 14 -16 11 4 7 -4 -11 -19 -21 -17 -40 -24 -62 -22 -18 1 -33 -2 -33 -6
0 -4 -16 -4 -35 0 -26 6 -35 5 -35 -5 0 -13 -29 -28 -46 -24 -5 1 -29 -1 -54
-5 -25 -4 -53 -8 -62 -10 -21 -3 -70 -72 -67 -95 4 -41 -2 -61 -17 -61 -10 0
-14 -6 -11 -14 7 -18 -32 -29 -50 -14 -8 6 -11 20 -8 32 5 17 4 18 -4 6 -8
-11 -11 -12 -11 -2 0 7 -5 10 -11 6 -9 -5 -10 6 -7 39 5 44 4 45 -17 37 -12
-4 -28 -4 -35 0 -8 5 -18 6 -22 4 -4 -3 -8 0 -8 5 0 6 7 11 16 11 9 0 14 6 11
13 -2 6 -10 11 -16 10 -6 -2 -11 3 -11 11 0 8 -7 17 -16 20 -8 3 -13 10 -9 15
3 6 -3 9 -12 9 -10 0 -31 4 -46 11 -23 9 -27 15 -22 34 6 18 5 20 -6 10 -22
-22 -36 -15 -52 26 -16 39 -42 59 -50 38 -3 -7 -9 0 -15 15 -8 20 -16 25 -32
21 -16 -4 -19 -2 -14 11 3 9 2 16 -4 16 -6 0 -13 -6 -15 -12 -3 -7 -6 -1 -6
14 -1 15 -6 30 -12 34 -6 3 -9 17 -6 30 5 28 -41 74 -53 53 -5 -7 -10 -8 -14
-1 -3 6 -2 13 4 17 18 11 10 25 -14 25 -29 0 -31 3 -40 53 -6 34 -5 38 20 47
18 7 24 15 20 26 -3 9 -6 18 -6 22 0 3 -7 -3 -15 -14 -11 -15 -15 -16 -16 -4
-5 55 14 97 32 70 7 -11 9 -4 7 25 -3 39 -2 40 29 37 28 -3 36 2 53 30 11 18
20 27 20 19 0 -9 9 -5 25 11 22 22 32 25 73 21 26 -3 64 -11 85 -19 44 -17 61
-11 51 18 -5 17 -3 18 14 9 14 -8 29 -8 47 -1z m945 -111 c0 -6 -4 -7 -10 -4
-5 3 -10 11 -10 16 0 6 5 7 10 4 6 -3 10 -11 10 -16z m-1392 -64 c-3 -3 -9 2
-12 12 -6 14 -5 15 5 6 7 -7 10 -15 7 -18z m1469 -87 c-3 -7 -5 -2 -5 12 0 14
2 19 5 13 2 -7 2 -19 0 -25z m-1480 -90 c-3 -7 -5 -2 -5 12 0 14 2 19 5 13 2
-7 2 -19 0 -25z m113 -94 c0 -8 -4 -12 -10 -9 -5 3 -10 10 -10 16 0 5 5 9 10
9 6 0 10 -7 10 -16z m1034 -80 c3 -8 2 -12 -4 -9 -6 3 -10 10 -10 16 0 14 7
11 14 -7z m-1067 -299 c-2 -5 -21 -11 -43 -13 -36 -2 -38 -1 -20 13 21 16 68
17 63 0z m43 -5 c0 -5 -7 -10 -15 -10 -8 0 -15 5 -15 10 0 6 7 10 15 10 8 0
15 -4 15 -10z m-970 -30 c0 -5 -4 -10 -10 -10 -5 0 -10 5 -10 10 0 6 5 10 10
10 6 0 10 -4 10 -10z m1013 -56 c10 -11 -11 -41 -33 -47 -22 -6 -23 -3 -14 31
6 21 33 30 47 16z m-954 -159 c1 -54 -15 -79 -25 -39 -11 45 -12 45 -57 17
-26 -17 -57 -27 -82 -27 -37 -1 -41 -3 -49 -37 -6 -25 -4 -54 6 -95 11 -48 20
-63 47 -81 27 -18 30 -24 17 -29 -9 -3 -27 1 -41 10 -62 41 -83 314 -25 329
16 4 20 0 20 -19 0 -13 3 -24 8 -25 28 -2 65 -9 80 -13 12 -4 26 2 40 17 21
22 22 26 7 60 -22 53 -19 55 20 11 27 -30 34 -48 34 -79z m1756 105 c3 -6 -4
-14 -17 -19 -28 -10 -30 -9 -22 13 7 18 29 21 39 6z m-1725 -85 c0 -8 -4 -15
-10 -15 -5 0 -10 7 -10 15 0 8 5 15 10 15 6 0 10 -7 10 -15z m-370 -33 c0 -10
4 -22 10 -28 9 -9 31 -106 26 -112 -3 -3 -39 94 -51 136 -4 13 -2 22 4 22 6 0
11 -8 11 -18z m384 -165 c1 -20 -2 -33 -6 -31 -14 9 -8 -13 7 -26 8 -7 15 -19
15 -26 0 -8 5 -14 10 -14 6 0 10 -8 10 -17 0 -15 -4 -13 -19 7 -11 13 -17 28
-15 32 3 4 -1 5 -9 2 -21 -8 -27 17 -15 70 11 53 19 54 22 3z m776 -7 c-6 -12
-14 -20 -17 -17 -2 3 1 14 8 26 17 26 24 19 9 -9z m-60 -31 c0 -6 7 -9 15 -5
8 3 15 1 15 -4 0 -11 -24 -13 -57 -4 -31 8 -29 24 2 24 14 0 25 -5 25 -11z
m-55 -29 c-3 -5 -10 -10 -16 -10 -5 0 -9 5 -9 10 0 6 7 10 16 10 8 0 12 -4 9
-10z m-85 -20 c0 -5 -4 -10 -10 -10 -5 0 -10 5 -10 10 0 6 5 10 10 10 6 0 10
-4 10 -10z m30 6 c0 -3 -4 -8 -10 -11 -5 -3 -10 -1 -10 4 0 6 5 11 10 11 6 0
10 -2 10 -4z m-828 -109 c5 -10 8 -21 5 -23 -4 -5 -77 99 -77 111 0 9 57 -61
72 -88z m1469 35 c-8 -3 -8 -9 -1 -23 10 -18 7 -19 -39 -19 -39 0 -56 -6 -81
-27 -25 -21 -34 -23 -40 -13 -11 18 -8 60 5 62 6 0 26 6 45 13 19 7 55 12 79
11 24 0 38 -2 32 -4z m99 -122 c0 -5 -4 -10 -9 -10 -6 0 -13 5 -16 10 -3 6 1
10 9 10 9 0 16 -4 16 -10z m-18 -45 c-4 -25 -13 -31 -25 -19 -6 7 14 44 24 44
3 0 4 -11 1 -25z m1 -282 c14 -9 7 -33 -16 -47 -25 -17 -84 -8 -79 13 3 15
-15 14 -20 -1 -5 -14 -61 -13 -89 3 -22 11 -25 35 -6 43 13 6 197 -3 210 -11z
m-122 -516 c-13 -13 -26 -3 -16 12 3 6 11 8 17 5 6 -4 6 -10 -1 -17z m-1181
-448 c0 -6 -4 -7 -10 -4 -5 3 -10 11 -10 16 0 6 5 7 10 4 6 -3 10 -11 10 -16z
m20 -40 c0 -6 -4 -7 -10 -4 -5 3 -10 11 -10 16 0 6 5 7 10 4 6 -3 10 -11 10
-16z m3707 -120 c-4 -15 1 -28 16 -40 19 -16 19 -18 5 -19 -11 0 -15 -5 -12
-15 8 -21 -2 -19 -31 7 -31 27 -31 34 -2 64 27 29 31 30 24 3z m-2569 -1 c19
-19 14 -29 -8 -16 -20 13 -27 28 -12 28 4 0 13 -5 20 -12z m-34 -102 c25 -53
18 -66 -9 -16 -13 25 -24 49 -25 53 0 17 18 -4 34 -37z m-384 25 c0 -5 -7 -11
-14 -14 -10 -4 -13 -1 -9 9 6 15 23 19 23 5z m389 -370 c20 -37 15 -169 -9
-254 -59 -201 -110 -341 -110 -299 0 36 -121 247 -216 380 -16 21 -15 22 5 22
28 0 95 34 144 72 46 37 131 203 150 293 l12 60 5 -125 c4 -76 11 -135 19
-149z m-489 255 c0 -2 -7 -6 -15 -10 -8 -3 -15 -1 -15 4 0 6 7 10 15 10 8 0
15 -2 15 -4z m3895 -26 c10 8 19 10 23 4 4 -5 23 -9 42 -10 99 -2 160 -16 160
-37 0 -5 8 -16 18 -24 16 -12 15 -13 -8 -11 -29 2 -98 -10 -120 -21 -17 -9
-117 -6 -152 4 -12 4 -32 17 -42 28 -19 19 -19 20 -1 33 15 11 20 11 27 1 5
-8 8 -5 8 9 0 26 11 38 21 22 6 -9 11 -8 24 2z m600 -24 c32 6 34 4 40 -28 3
-18 2 -45 -4 -60 -5 -14 -7 -29 -4 -32 7 -7 5 -7 -47 -10 -19 -2 -41 2 -47 7
-18 13 -16 44 2 51 10 3 15 20 16 48 0 24 3 37 6 30 3 -8 16 -11 38 -6z m-731
-22 c3 -8 2 -12 -4 -9 -6 3 -10 10 -10 16 0 14 7 11 14 -7z m471 -24 c-3 -5
-12 -10 -20 -10 -8 0 -17 5 -20 10 -4 6 5 10 20 10 15 0 24 -4 20 -10z m321
-117 c-10 -10 -19 5 -10 18 6 11 8 11 12 0 2 -7 1 -15 -2 -18z m-4759 1 c-3
-3 -12 -4 -19 -1 -8 3 -5 6 6 6 11 1 17 -2 13 -5z m-47 -34 c13 -8 13 -10 -2
-10 -9 0 -20 5 -23 10 -8 13 5 13 25 0z m-1890 -286 c0 -8 -4 -12 -10 -9 -5 3
-10 10 -10 16 0 5 5 9 10 9 6 0 10 -7 10 -16z m220 -55 c0 -5 -7 -9 -15 -9
-15 0 -20 12 -9 23 8 8 24 -1 24 -14z m185 -19 c3 -5 1 -10 -4 -10 -6 0 -11 5
-11 10 0 6 2 10 4 10 3 0 8 -4 11 -10z m-180 -20 c13 -6 15 -9 5 -9 -8 0 -22
4 -30 9 -18 12 -2 12 25 0z m75 -20 c0 -4 -6 -13 -14 -19 -12 -10 -13 -8 -9
10 5 17 3 20 -7 14 -8 -5 -11 -4 -6 3 7 12 36 5 36 -8z m130 16 c0 -2 -9 -6
-20 -9 -11 -3 -20 -1 -20 4 0 5 9 9 20 9 11 0 20 -2 20 -4z m45 -95 c-12 -40
-25 -10 -16 39 1 2 6 -1 12 -7 6 -6 8 -21 4 -32z m85 -11 c0 -5 -4 -10 -10
-10 -5 0 -10 5 -10 10 0 6 5 10 10 10 6 0 10 -4 10 -10z m110 -37 c0 -5 -11
-13 -25 -19 -23 -11 -24 -10 -14 7 9 18 39 27 39 12z m-5 -53 c3 -6 -1 -7 -9
-4 -18 7 -21 14 -7 14 6 0 13 -4 16 -10z m-1515 -25 c-7 -9 -15 -13 -19 -10
-3 3 1 10 9 15 21 14 24 12 10 -5z m1555 -25 c3 -5 1 -10 -4 -10 -6 0 -11 5
-11 10 0 6 2 10 4 10 3 0 8 -4 11 -10z m2616 -7 c13 -16 12 -17 -3 -4 -10 7
-18 15 -18 17 0 8 8 3 21 -13z m-3396 -73 c3 -5 1 -10 -4 -10 -6 0 -11 5 -11
10 0 6 2 10 4 10 3 0 8 -4 11 -10z m85 -101 c0 -5 -4 -9 -10 -9 -5 0 -10 7
-10 16 0 8 5 12 10 9 6 -3 10 -10 10 -16z m3454 5 c3 -8 2 -12 -4 -9 -6 3 -10
10 -10 16 0 14 7 11 14 -7z m-3424 -34 c0 -5 -2 -10 -4 -10 -3 0 -8 5 -11 10
-3 6 -1 10 4 10 6 0 11 -4 11 -10z m40 -40 c0 -5 -2 -10 -4 -10 -3 0 -8 5 -11
10 -3 6 -1 10 4 10 6 0 11 -4 11 -10z m3580 -220 c0 -5 -4 -10 -10 -10 -5 0
-10 5 -10 10 0 6 5 10 10 10 6 0 10 -4 10 -10z m437 -32 c-3 -8 -6 -5 -6 6 -1
11 2 17 5 13 3 -3 4 -12 1 -19z m3 -59 c0 -5 -4 -7 -10 -4 -5 3 -10 1 -10 -6
0 -7 -3 -10 -6 -6 -8 7 4 27 17 27 5 0 9 -5 9 -11z m-114 -129 c8 0 14 -4 14
-9 0 -18 -35 -4 -37 15 -2 10 0 13 3 7 3 -7 12 -13 20 -13z m-5275 -366 l-8
-29 -5 27 c-3 15 -1 25 3 22 5 -3 9 0 9 7 0 7 2 10 5 8 2 -3 1 -18 -4 -35z
m149 -668 c0 -2 -8 -10 -17 -17 -16 -13 -17 -12 -4 4 13 16 21 21 21 13z m-44
-71 c-20 -15 -36 -19 -36 -10 0 5 38 23 50 24 3 0 -4 -6 -14 -14z m5697 -330
c3 -53 2 -82 -3 -70 -8 19 -14 173 -6 164 2 -2 6 -44 9 -94z m47 -210 c30
-109 43 -136 123 -243 38 -51 67 -95 64 -98 -7 -7 -162 206 -175 241 -31 86
-68 256 -43 200 5 -11 19 -56 31 -100z m239 -416 c30 -54 34 -72 37 -153 3
-62 1 -85 -5 -71 -5 11 -10 38 -10 61 -1 42 -44 181 -61 198 -12 12 -13 26 -2
26 4 0 23 -28 41 -61z m-1658 -18 c7 12 9 11 9 -1 0 -13 1 -13 10 0 7 11 10
11 10 2 0 -7 5 -10 10 -7 6 4 22 0 35 -9 13 -9 34 -16 45 -16 12 0 28 -7 36
-15 8 -8 21 -12 29 -8 8 3 27 2 43 -2 25 -7 25 -8 7 -15 -14 -6 -16 -9 -4 -9
9 -1 22 -12 29 -26 8 -14 18 -22 24 -17 6 4 22 7 36 7 21 0 30 -11 56 -65 17
-36 29 -69 26 -74 -3 -5 0 -6 6 -2 7 4 14 -3 18 -19 3 -13 9 -23 14 -20 4 2
12 -7 18 -20 9 -20 9 -23 -5 -18 -12 5 -12 2 3 -15 19 -23 30 -29 19 -12 -3 6
-4 10 -1 10 3 0 13 -15 21 -32 12 -24 12 -28 2 -15 -18 21 -27 22 -27 1 0 -9
-5 -12 -12 -8 -7 4 -4 -3 7 -15 18 -21 19 -23 2 -32 -10 -6 -15 -15 -12 -20 4
-5 11 -7 16 -3 6 3 9 0 7 -8 -5 -22 64 -110 94 -120 13 -5 1 -98 -13 -98 -5 0
-9 -31 -9 -68 0 -71 -16 -180 -30 -197 -4 -5 -11 -28 -15 -50 -7 -41 -41 -89
-56 -79 -5 3 -9 0 -9 -5 0 -15 -26 -14 -50 1 -16 10 -24 9 -47 -8 -15 -11 -36
-23 -46 -27 -10 -4 -15 -11 -12 -17 4 -6 -1 -7 -10 -3 -10 3 -20 2 -24 -3 -19
-26 -83 -37 -236 -40 -88 -1 -168 0 -177 2 -9 3 -18 15 -20 27 -2 12 -9 21
-16 19 -8 -1 -11 2 -7 8 3 5 2 10 -3 10 -5 0 -9 22 -8 49 1 39 6 54 28 76 l27
27 131 -7 130 -7 10 28 c8 21 8 31 -2 41 -17 16 -94 31 -183 34 -38 1 -81 8
-95 15 -14 6 -42 19 -62 29 -20 10 -39 24 -42 32 -7 18 14 52 30 46 6 -2 15 1
19 6 3 6 11 9 16 6 5 -4 9 -2 9 4 0 5 3 18 6 28 5 15 4 15 -5 3 -8 -11 -11
-12 -11 -2 0 7 -4 10 -10 7 -13 -8 -13 1 0 25 9 18 21 19 116 17 74 -1 107 -6
113 -15 12 -19 87 -28 106 -12 22 18 19 36 -11 63 -30 28 -76 43 -154 52 -95
11 -194 35 -219 54 -20 15 -22 21 -12 39 7 12 18 22 26 22 8 0 15 6 15 14 0 7
7 26 15 42 10 19 11 32 4 40 -6 8 -6 14 0 18 14 9 101 4 101 -6 0 -4 29 -8 64
-8 35 0 66 -4 68 -10 2 -6 37 -4 95 7 l93 16 -6 31 c-3 17 -6 31 -7 32 -25 14
-135 47 -212 64 -132 29 -218 54 -222 67 -5 14 37 64 48 58 4 -3 19 1 31 9 16
10 28 12 38 6 22 -14 40 -12 40 4 0 7 7 26 14 42 8 15 13 31 10 36 -3 5 6 6
20 2 18 -4 26 -2 27 7 0 12 1 12 6 0 5 -11 7 -11 14 0z m1539 -11 c6 -11 8
-20 6 -20 -3 0 -10 9 -16 20 -6 11 -8 20 -6 20 3 0 10 -9 16 -20z m39 -85 c0
-5 -6 1 -14 15 -8 14 -14 30 -14 35 0 6 6 -1 14 -15 8 -14 14 -29 14 -35z
m108 -167 c-3 -7 -5 -2 -5 12 0 14 2 19 5 13 2 -7 2 -19 0 -25z"/>
<path d="M6830 8589 c0 -5 11 -9 24 -9 13 0 27 -5 29 -10 3 -6 4 -5 3 2 -3 14
-56 31 -56 17z"/>
<path d="M6910 8515 c0 -8 5 -15 10 -15 6 0 10 7 10 15 0 8 -4 15 -10 15 -5 0
-10 -7 -10 -15z"/>
<path d="M6870 8486 c0 -18 16 -29 30 -21 13 8 1 35 -16 35 -8 0 -14 -6 -14
-14z"/>
<path d="M7917 1640 c-6 -23 4 -33 26 -24 18 6 11 44 -8 44 -7 0 -15 -9 -18
-20z"/>
<path d="M6700 10015 c19 -19 36 -35 39 -35 3 0 -10 16 -29 35 -19 19 -36 35
-39 35 -3 0 10 -16 29 -35z"/>
<path d="M7798 9850 c-42 -53 -50 -74 -18 -45 23 21 64 84 59 89 -2 2 -21 -18
-41 -44z"/>
<path d="M6298 9813 c7 -3 16 -2 19 1 4 3 -2 6 -13 5 -11 0 -14 -3 -6 -6z"/>
<path d="M6248 9803 c7 -3 16 -2 19 1 4 3 -2 6 -13 5 -11 0 -14 -3 -6 -6z"/>
<path d="M6336 9771 c-3 -4 6 -6 19 -3 14 2 25 6 25 8 0 8 -39 4 -44 -5z"/>
<path d="M7241 9734 c0 -11 3 -14 6 -6 3 7 2 16 -1 19 -3 4 -6 -2 -5 -13z"/>
<path d="M7684 9724 c0 -29 2 -30 15 -5 8 14 7 20 -2 24 -8 3 -13 -4 -13 -19z"/>
<path d="M7437 9723 c-4 -3 -7 -11 -7 -17 0 -6 5 -5 12 2 6 6 9 14 7 17 -3 3
-9 2 -12 -2z"/>
<path d="M5965 9620 c-21 -22 -37 -41 -34 -43 2 -2 21 16 43 40 49 54 43 56
-9 3z"/>
<path d="M7748 9563 c7 -3 16 -2 19 1 4 3 -2 6 -13 5 -11 0 -14 -3 -6 -6z"/>
<path d="M7798 9563 c7 -3 16 -2 19 1 4 3 -2 6 -13 5 -11 0 -14 -3 -6 -6z"/>
<path d="M7925 9529 c3 -4 -1 -10 -7 -13 -7 -3 -4 -4 7 -1 11 3 32 -2 48 -10
15 -7 27 -10 27 -5 0 4 -8 11 -17 15 -17 7 -16 8 2 15 14 5 8 7 -22 7 -23 0
-40 -3 -38 -8z"/>
<path d="M7830 9520 c-9 -6 -10 -10 -3 -10 6 0 15 5 18 10 8 12 4 12 -15 0z"/>
<path d="M7990 9470 c0 -5 5 -10 11 -10 5 0 7 5 4 10 -3 6 -8 10 -11 10 -2 0
-4 -4 -4 -10z"/>
<path d="M8250 8970 c0 -5 10 -10 23 -10 18 0 19 2 7 10 -19 13 -30 13 -30 0z"/>
<path d="M8210 8788 c0 -9 5 -20 10 -23 13 -8 13 5 0 25 -8 13 -10 13 -10 -2z"/>
<path d="M8231 8634 c0 -11 3 -14 6 -6 3 7 2 16 -1 19 -3 4 -6 -2 -5 -13z"/>
<path d="M8150 8580 c0 -19 3 -21 12 -12 9 9 9 15 0 24 -9 9 -12 7 -12 -12z"/>
<path d="M8167 8553 c-4 -3 -7 -20 -6 -37 l1 -31 9 34 c10 33 8 47 -4 34z"/>
<path d="M7871 8284 c0 -11 3 -14 6 -6 3 7 2 16 -1 19 -3 4 -6 -2 -5 -13z"/>
<path d="M7883 7600 c0 -30 2 -43 4 -27 2 15 2 39 0 55 -2 15 -4 2 -4 -28z"/>
<path d="M6308 7633 c-10 -2 -18 -11 -18 -20 0 -8 5 -12 13 -9 6 3 20 9 30 12
9 4 17 10 17 15 0 9 -13 10 -42 2z"/>
<path d="M1875 7610 c-37 -7 -55 -40 -55 -105 0 -64 -23 -151 -49 -186 l-20
-27 29 -6 c17 -3 44 -9 60 -12 17 -4 29 -11 27 -18 -2 -6 10 -16 27 -23 26
-10 28 -12 9 -12 -13 -1 -23 -7 -23 -15 0 -26 38 -81 70 -99 16 -10 37 -31 45
-48 11 -20 23 -29 40 -29 13 0 27 -5 30 -10 4 -6 10 -8 15 -5 5 3 18 -4 29
-16 19 -20 29 -22 112 -20 51 1 96 4 100 7 5 3 6 -2 3 -10 -3 -9 -1 -16 5 -16
6 0 11 5 11 10 0 6 13 10 28 10 15 0 33 5 40 12 8 8 15 8 28 -3 9 -8 19 -13
21 -11 1 1 4 2 6 1 45 -15 330 -27 352 -16 11 6 26 10 32 9 7 -2 10 3 7 11 -3
8 2 17 10 20 25 10 19 25 -19 43 -60 28 -111 95 -130 172 -9 37 -27 92 -40
122 -13 30 -27 82 -30 115 -4 33 -13 71 -20 85 -8 14 -16 33 -19 43 -5 15 -9
16 -26 7 -11 -6 -20 -7 -21 -3 -3 29 -28 -72 -28 -114 -2 -94 -53 -188 -122
-224 -43 -22 -178 -26 -307 -9 -128 17 -161 62 -172 236 -4 60 -11 117 -16
125 -6 10 -19 13 -39 9z m75 -364 c0 -3 -4 -8 -10 -11 -5 -3 -10 -1 -10 4 0 6
5 11 10 11 6 0 10 -2 10 -4z"/>
<path d="M7490 7551 c0 -5 5 -13 10 -16 6 -3 10 -2 10 4 0 5 -4 13 -10 16 -5
3 -10 2 -10 -4z"/>
<path d="M7872 7515 c0 -16 2 -22 5 -12 2 9 2 23 0 30 -3 6 -5 -1 -5 -18z"/>
<path d="M6185 7510 c-4 -6 -15 -8 -26 -5 -14 5 -17 2 -13 -8 3 -8 0 -18 -5
-22 -13 -7 -5 -25 10 -25 6 0 7 5 4 10 -3 6 1 10 9 10 9 0 16 5 16 11 0 6 7 9
15 5 9 -3 15 0 15 9 0 18 -17 28 -25 15z"/>
<path d="M6110 7500 c0 -5 5 -10 10 -10 6 0 10 5 10 10 0 6 -4 10 -10 10 -5 0
-10 -4 -10 -10z"/>
<path d="M7856 7449 c-3 -18 -4 -34 -2 -36 2 -3 7 10 11 27 4 17 5 34 2 36 -2
3 -7 -10 -11 -27z"/>
<path d="M6640 7450 c0 -5 5 -10 10 -10 6 0 10 5 10 10 0 6 -4 10 -10 10 -5 0
-10 -4 -10 -10z"/>
<path d="M6433 7384 c-15 -16 -16 -24 -4 -24 8 0 24 30 19 35 -2 2 -9 -3 -15
-11z"/>
<path d="M7841 7384 c0 -11 3 -14 6 -6 3 7 2 16 -1 19 -3 4 -6 -2 -5 -13z"/>
<path d="M6335 7350 c-3 -5 -1 -10 4 -10 6 0 11 5 11 10 0 6 -2 10 -4 10 -3 0
-8 -4 -11 -10z"/>
<path d="M7831 7344 c0 -11 3 -14 6 -6 3 7 2 16 -1 19 -3 4 -6 -2 -5 -13z"/>
<path d="M7821 7304 c0 -11 3 -14 6 -6 3 7 2 16 -1 19 -3 4 -6 -2 -5 -13z"/>
<path d="M6410 7300 c0 -5 -7 -16 -16 -24 -8 -9 -14 -22 -12 -28 3 -8 13 -2
28 15 13 14 27 24 32 21 4 -3 8 -1 8 4 0 5 -9 12 -20 15 -11 3 -20 1 -20 -3z"/>
<path d="M7796 7209 c-9 -39 -15 -73 -13 -75 2 -3 12 27 21 67 10 39 16 73 14
75 -3 2 -12 -28 -22 -67z"/>
<path d="M6420 7240 c0 -5 5 -10 10 -10 6 0 10 5 10 10 0 6 -4 10 -10 10 -5 0
-10 -4 -10 -10z"/>
<path d="M6380 7189 c0 -5 5 -7 10 -4 6 3 10 8 10 11 0 2 -4 4 -10 4 -5 0 -10
-5 -10 -11z"/>
<path d="M6424 7143 c15 -4 16 -7 5 -13 -7 -5 -10 -12 -6 -17 9 -9 28 17 21
29 -3 4 -13 7 -22 7 -14 -1 -14 -2 2 -6z"/>
<path d="M7756 7068 c-10 -29 -35 -87 -57 -128 -22 -41 -32 -66 -23 -55 36 45
112 220 101 232 -3 2 -12 -20 -21 -49z"/>
<path d="M770 7050 c0 -5 5 -10 11 -10 5 0 7 5 4 10 -3 6 -8 10 -11 10 -2 0
-4 -4 -4 -10z"/>
<path d="M640 7011 c0 -8 -7 -11 -17 -6 -15 5 -16 4 -5 -6 9 -10 15 -10 24 -1
6 6 9 15 5 19 -4 3 -7 1 -7 -6z"/>
<path d="M3999 6976 c-2 -2 -62 -9 -134 -16 -170 -15 -168 -15 -173 -28 -2 -7
-12 -12 -23 -12 -10 0 -18 -5 -16 -11 2 -11 -57 -51 -95 -65 -10 -3 -18 -10
-18 -15 0 -5 -9 -9 -19 -9 -11 0 -22 -4 -25 -9 -3 -5 -27 -12 -53 -15 -53 -7
-123 -34 -123 -48 0 -4 -9 -8 -20 -8 -13 0 -20 -7 -20 -20 0 -13 -7 -20 -20
-20 -11 0 -25 -9 -32 -20 -9 -13 -24 -20 -44 -20 -24 0 -33 -6 -39 -22 -8 -23
-8 -23 -12 2 -7 35 -21 48 -16 13 l5 -28 -20 24 -20 25 5 -29 c5 -26 4 -27
-21 -23 -18 4 -26 1 -26 -8 0 -8 -5 -14 -11 -14 -6 0 -8 8 -4 19 3 11 1 22 -5
26 -5 3 -10 0 -10 -7 0 -7 -3 -23 -6 -35 -5 -19 -2 -23 17 -24 20 -1 19 -2 -6
-8 -35 -8 -58 9 -49 36 5 17 5 17 -6 0 -9 -14 -9 -22 0 -33 11 -12 5 -14 -34
-14 -45 0 -64 -16 -26 -22 18 -3 17 -5 -7 -28 -15 -14 -23 -19 -19 -12 11 19
-22 52 -52 52 -21 0 -23 -3 -18 -25 6 -25 6 -25 -64 -25 -40 0 -70 -4 -70 -10
0 -5 -7 -10 -15 -10 -8 0 -15 5 -15 12 0 6 -6 4 -13 -7 -13 -17 -14 -17 -19 3
-7 25 -40 42 -46 24 -2 -7 -8 -12 -13 -12 -6 0 -8 4 -5 9 4 5 1 11 -6 13 -18
6 -58 -3 -58 -13 0 -5 -4 -9 -10 -9 -5 0 -10 9 -10 20 0 11 -4 20 -10 20 -5 0
-10 -8 -10 -19 0 -13 -10 -20 -31 -25 -35 -7 -49 -1 -49 20 0 18 -4 18 -40 -1
-20 -10 -43 -13 -72 -9 -30 4 -39 3 -29 -4 20 -14 -57 -21 -81 -7 -12 6 -22 5
-35 -7 -22 -19 -86 -21 -79 -2 6 15 -62 16 -81 1 -7 -5 -31 -11 -53 -12 -30
-3 -40 0 -40 12 0 13 -2 13 -15 -1 -13 -13 -20 -13 -48 -1 -17 7 -44 11 -59 8
-17 -3 -43 3 -69 17 -26 13 -51 19 -65 16 -13 -4 -26 -2 -29 4 -3 5 -15 10
-26 10 -10 0 -19 5 -19 10 0 6 5 10 11 10 5 0 7 5 4 10 -4 6 -10 8 -15 5 -14
-9 -41 7 -36 21 6 15 -30 64 -48 64 -11 0 -38 51 -40 77 -2 16 -16 29 -16 15
0 -22 -29 -12 -32 11 -2 16 -10 22 -28 22 -15 0 -26 7 -28 18 -3 16 -42 25
-42 10 0 -5 -11 -13 -25 -19 -21 -10 -24 -9 -27 10 -3 18 -12 22 -63 28 -48 5
-66 3 -90 -12 -16 -9 -42 -20 -57 -24 -16 -3 -28 -10 -28 -15 0 -5 -9 -7 -20
-4 -15 4 -19 11 -15 24 4 11 2 19 -4 19 -6 0 -11 -7 -11 -15 0 -8 -4 -15 -10
-15 -5 0 -10 7 -10 17 0 24 -13 7 -15 -20 -3 -37 -30 -27 -31 12 0 36 -20 53
-34 30 -7 -10 -11 -10 -25 1 -14 12 -21 11 -45 -3 -28 -17 -28 -17 -23 5 4 21
3 22 -10 6 -17 -22 -27 -23 -27 -3 0 8 -7 15 -15 15 -8 0 -15 -4 -15 -8 0 -5
-13 -7 -30 -4 -16 2 -42 1 -57 -3 -21 -5 -24 -8 -12 -16 10 -6 5 -9 -19 -9
-20 0 -31 -4 -27 -10 3 -6 17 -7 31 -4 15 4 24 2 24 -6 0 -12 -41 -10 -86 5
-17 5 -23 1 -34 -24 -7 -17 -18 -31 -24 -31 -6 0 -4 -5 4 -10 13 -9 13 -12 -2
-24 -10 -7 -18 -16 -18 -20 0 -10 38 -7 45 4 10 15 35 12 35 -5 0 -8 -8 -15
-18 -15 -11 0 -18 -8 -19 -20 -1 -11 2 -20 6 -20 4 0 21 -11 37 -25 16 -14 35
-25 42 -25 21 0 13 -24 -18 -53 -25 -24 -35 -27 -67 -23 -30 4 -33 4 -13 -3
25 -9 25 -9 -5 -10 -23 -1 -26 -4 -15 -11 12 -7 11 -10 -5 -15 -11 -4 -27 -10
-36 -15 -9 -4 -22 -4 -29 0 -8 5 -18 6 -23 3 -5 -3 -12 -1 -16 6 -5 7 -17 8
-41 1 -22 -6 -38 -6 -44 0 -7 7 -5 10 6 10 9 0 18 6 21 14 7 18 -48 29 -75 15
-12 -6 -18 -7 -14 -1 3 5 -1 13 -10 16 -13 5 -14 9 -4 21 7 8 19 15 27 15 13
0 13 -3 3 -15 -9 -10 -9 -15 -1 -15 6 0 11 4 11 9 0 5 8 12 18 14 16 4 16 5 0
6 -10 0 -18 8 -18 16 0 9 -8 18 -17 22 -27 9 -43 24 -37 34 3 5 12 2 21 -7 9
-8 25 -13 35 -11 14 4 18 1 14 -8 -7 -19 10 -28 30 -17 15 8 15 10 -1 15 -10
4 -13 12 -8 19 4 7 8 27 8 43 1 25 5 29 23 27 12 -2 22 2 22 7 0 6 -5 11 -12
11 -20 0 5 18 32 23 18 3 15 5 -12 6 -29 1 -38 5 -38 19 0 10 5 23 11 29 16
16 2 33 -28 33 -24 0 -25 -2 -20 -39 4 -29 2 -38 -8 -35 -7 3 -11 17 -9 32 1
14 -1 33 -6 42 -7 11 -9 7 -10 -17 0 -23 -5 -33 -16 -33 -8 0 -12 -5 -9 -10 4
-6 10 -8 15 -5 5 3 8 -4 7 -15 -1 -18 -3 -18 -24 -5 -12 8 -34 15 -48 15 -25
0 -26 -2 -20 -32 7 -31 6 -32 -9 -13 -8 11 -16 26 -16 33 0 15 -20 16 -20 1 0
-6 -7 -9 -15 -5 -13 5 -15 -381 -15 -3359 l0 -3365 854 0 855 0 153 54 c84 30
279 100 433 156 154 56 371 134 482 173 112 40 203 76 203 81 0 4 -27 41 -59
82 -67 83 -101 131 -218 312 -76 117 -98 152 -176 281 -89 148 -161 331 -178
456 l-12 87 -29 -6 c-19 -4 -28 -1 -28 8 0 9 8 12 25 8 15 -2 25 0 25 7 0 6
-4 11 -10 11 -5 0 -10 5 -10 12 0 6 -10 22 -22 35 -12 13 -16 23 -10 23 7 0
12 -6 12 -12 1 -8 6 -5 15 6 7 10 18 16 22 13 5 -3 10 31 11 76 2 45 5 105 7
132 24 265 32 388 40 610 8 231 17 428 20 445 1 8 6 69 9 135 4 66 9 127 11
135 3 8 7 35 9 60 3 25 9 65 15 89 5 24 7 49 4 57 -2 7 -1 19 3 26 4 7 9 28
11 47 2 19 12 65 23 103 10 37 16 68 12 68 -3 0 -1 5 6 12 7 7 12 19 12 27 1
9 9 34 20 56 11 22 19 45 20 52 0 7 22 57 49 113 27 55 45 100 40 100 -5 0 -9
5 -9 10 0 6 5 10 11 10 24 0 56 50 109 166 80 175 224 462 261 519 18 28 69
106 114 175 45 69 102 161 125 205 76 141 93 169 119 196 14 14 33 34 42 45
45 53 224 213 282 252 20 13 37 29 37 33 0 5 5 9 12 9 6 0 43 23 81 51 38 28
79 55 91 60 11 5 35 17 51 27 59 36 184 96 193 93 1 -1 24 10 52 24 27 14 56
25 65 25 9 0 18 6 21 13 3 8 10 14 17 14 7 0 46 16 88 36 42 21 79 37 83 37 4
0 39 15 79 34 40 19 92 41 117 49 114 39 110 37 108 69 -3 33 5 40 89 75 29
12 67 35 85 53 18 17 54 47 81 67 56 44 54 46 -62 75 -69 17 -309 91 -454 139
-31 10 -72 19 -90 19 -88 0 -178 51 -309 177 -48 46 -92 83 -97 83 -5 0 -16 2
-23 5 -8 3 -16 4 -19 1z m-2849 -171 c0 -8 -4 -15 -10 -15 -5 0 -7 7 -4 15 4
8 8 15 10 15 2 0 4 -7 4 -15z m130 -20 c0 -8 -4 -15 -10 -15 -5 0 -10 7 -10
15 0 8 5 15 10 15 6 0 10 -7 10 -15z m37 -37 c-3 -8 -6 -5 -6 6 -1 11 2 17 5
13 3 -3 4 -12 1 -19z m-780 6 c-3 -3 -12 -4 -19 -1 -8 3 -5 6 6 6 11 1 17 -2
13 -5z m820 -30 c-3 -3 -12 -4 -19 -1 -8 3 -5 6 6 6 11 1 17 -2 13 -5z m-877
-84 c0 -5 -2 -10 -4 -10 -3 0 -8 5 -11 10 -3 6 -1 10 4 10 6 0 11 -4 11 -10z
m2687 -12 c-3 -8 -6 -5 -6 6 -1 11 2 17 5 13 3 -3 4 -12 1 -19z m-3007 -58 c0
-5 -2 -10 -4 -10 -3 0 -8 5 -11 10 -3 6 -1 10 4 10 6 0 11 -4 11 -10z m2557
-86 c-3 -3 -12 -4 -19 -1 -8 3 -5 6 6 6 11 1 17 -2 13 -5z m-497 -2124 c55
-13 82 -25 140 -66 25 -17 62 -37 83 -45 20 -7 37 -16 37 -20 0 -4 9 -10 19
-14 14 -4 19 -14 18 -33 -2 -27 -3 -27 -78 -26 -49 0 -87 7 -109 17 -18 10
-36 15 -38 12 -3 -3 1 -5 8 -5 7 0 11 -3 8 -6 -4 -3 -24 6 -45 19 -21 14 -57
27 -79 29 -22 3 -51 11 -64 19 -14 8 -30 14 -37 14 -7 0 -18 8 -25 18 -15 19
-67 27 -116 16 -40 -9 -48 3 -26 36 15 23 22 25 93 26 42 0 94 4 116 8 22 5
42 9 45 10 3 0 25 -4 50 -9z m-20 -2514 c0 -21 20 -30 33 -17 15 15 24 14 31
-5 10 -26 -3 -57 -18 -45 -8 7 -21 5 -41 -5 -19 -10 -31 -12 -33 -5 -2 6 -8 9
-13 5 -5 -3 -9 4 -9 16 0 11 7 23 15 26 8 4 15 15 15 25 0 10 5 19 10 19 6 0
10 -6 10 -14z m30 -110 c0 -8 7 -22 16 -30 14 -15 12 -16 -25 -16 -37 0 -41 3
-41 24 0 13 6 27 13 29 23 10 37 7 37 -7z m35 -66 c-3 -5 -17 -10 -31 -10 -14
0 -22 4 -19 10 3 6 17 10 31 10 14 0 22 -4 19 -10z m-148 -296 c-3 -3 -12 -4
-19 -1 -8 3 -5 6 6 6 11 1 17 -2 13 -5z m-37 -44 c-7 -4 -9 -13 -6 -19 4 -6
12 -8 18 -5 7 4 8 2 4 -4 -4 -7 -16 -12 -26 -12 -13 0 -18 7 -17 23 1 25 30
52 36 35 2 -6 -2 -14 -9 -18z"/>
<path d="M2470 4180 c-9 -6 -10 -10 -3 -10 6 0 15 5 18 10 8 12 4 12 -15 0z"/>
<path d="M6770 6951 c0 -6 5 -13 10 -16 6 -3 10 1 10 9 0 9 -4 16 -10 16 -5 0
-10 -4 -10 -9z"/>
<path d="M6160 6940 c0 -5 7 -10 16 -10 8 0 12 5 9 10 -3 6 -10 10 -16 10 -5
0 -9 -4 -9 -10z"/>
<path d="M265 6899 c-11 -4 -46 -15 -79 -24 -32 -9 -56 -19 -53 -22 3 -3 27 2
53 11 55 18 54 18 53 9 -3 -21 3 -20 28 3 29 27 28 36 -2 23z"/>
<path d="M6755 6880 c-8 -13 4 -32 16 -25 12 8 12 35 0 35 -6 0 -13 -4 -16
-10z"/>
<path d="M98 6843 c7 -3 16 -2 19 1 4 3 -2 6 -13 5 -11 0 -14 -3 -6 -6z"/>
<path d="M150 6840 c-8 -5 -26 -10 -40 -10 -16 0 -21 -3 -14 -10 6 -6 27 -3
59 10 28 10 41 19 30 19 -11 1 -27 -4 -35 -9z"/>
<path d="M1200 6840 c0 -5 9 -10 21 -10 11 0 17 5 14 10 -3 6 -13 10 -21 10
-8 0 -14 -4 -14 -10z"/>
<path d="M17 6823 c-20 -5 -13 -23 9 -23 8 0 13 4 10 9 -4 5 0 12 6 14 16 7 0
6 -25 0z"/>
<path d="M198 6823 c6 -2 18 -2 25 0 6 3 1 5 -13 5 -14 0 -19 -2 -12 -5z"/>
<path d="M333 6823 c9 -2 23 -2 30 0 6 3 -1 5 -18 5 -16 0 -22 -2 -12 -5z"/>
<path d="M406 6821 c-4 -5 3 -7 14 -4 23 6 26 13 6 13 -8 0 -17 -4 -20 -9z"/>
<path d="M342 6780 c0 -16 4 -30 9 -30 5 0 9 14 9 30 0 17 -4 30 -8 30 -5 0
-9 -13 -10 -30z"/>
<path d="M120 6790 c-24 -8 -23 -8 8 -9 17 -1 32 4 32 9 0 11 -5 11 -40 0z"/>
<path d="M316 6783 c-4 -9 -2 -21 4 -27 7 -7 10 -2 10 17 0 31 -5 34 -14 10z"/>
<path d="M277 6766 c-4 -10 -5 -21 -2 -24 9 -9 17 6 13 25 -3 17 -4 17 -11 -1z"/>
<path d="M7574 6758 l-19 -23 23 19 c21 18 27 26 19 26 -2 0 -12 -10 -23 -22z"/>
<path d="M35 6760 c3 -5 8 -10 11 -10 2 0 4 5 4 10 0 6 -5 10 -11 10 -5 0 -7
-4 -4 -10z"/>
<path d="M376 6755 c4 -8 8 -15 10 -15 2 0 4 7 4 15 0 8 -4 15 -10 15 -5 0 -7
-7 -4 -15z"/>
<path d="M88 6753 c6 -2 18 -2 25 0 6 3 1 5 -13 5 -14 0 -19 -2 -12 -5z"/>
<path d="M5673 6753 c-35 -7 -36 -6 48 -145 l52 -88 33 48 c19 26 44 67 56 91
24 49 20 56 -44 66 -20 4 -42 13 -49 21 -11 13 -49 16 -96 7z"/>
<path d="M338 6713 c12 -2 32 -2 45 0 12 2 2 4 -23 4 -25 0 -35 -2 -22 -4z"/>
<path d="M290 6696 c0 -2 7 -6 15 -10 8 -3 15 -1 15 4 0 6 -7 10 -15 10 -8 0
-15 -2 -15 -4z"/>
<path d="M240 6640 c0 -22 5 -30 17 -30 13 0 14 3 5 12 -17 17 -15 41 3 35 8
-4 17 -2 20 3 4 6 -5 10 -19 10 -22 0 -26 -4 -26 -30z"/>
<path d="M2890 6645 c0 -8 5 -15 10 -15 6 0 10 7 10 15 0 8 -4 15 -10 15 -5 0
-10 -7 -10 -15z"/>
<path d="M2430 6620 c0 -5 5 -10 11 -10 5 0 7 5 4 10 -3 6 -8 10 -11 10 -2 0
-4 -4 -4 -10z"/>
<path d="M2915 6607 c-4 -10 -5 -21 -1 -24 10 -10 18 4 13 24 -4 17 -4 17 -12
0z"/>
<path d="M7330 6586 c0 -2 7 -7 16 -10 8 -3 12 -2 9 4 -6 10 -25 14 -25 6z"/>
<path d="M2384 6549 c-3 -6 1 -18 10 -27 15 -15 16 -14 16 11 0 27 -13 36 -26
16z"/>
<path d="M7164 6284 c-10 -8 -13 -13 -6 -9 13 7 11 -17 -9 -79 -5 -16 -9 -38
-8 -50 0 -12 11 17 24 64 13 46 23 85 21 87 -1 2 -11 -4 -22 -13z"/>
<path d="M6920 5990 c0 -5 5 -10 10 -10 6 0 10 5 10 10 0 6 -4 10 -10 10 -5 0
-10 -4 -10 -10z"/>
<path d="M6990 5974 c0 -8 5 -12 10 -9 6 3 10 10 10 16 0 5 -4 9 -10 9 -5 0
-10 -7 -10 -16z"/>
<path d="M6880 5964 c0 -8 5 -12 10 -9 6 3 10 10 10 16 0 5 -4 9 -10 9 -5 0
-10 -7 -10 -16z"/>
<path d="M5915 5880 c-3 -5 -1 -10 4 -10 6 0 11 5 11 10 0 6 -2 10 -4 10 -3 0
-8 -4 -11 -10z"/>
<path d="M5980 5679 c0 -5 5 -7 10 -4 6 3 10 8 10 11 0 2 -4 4 -10 4 -5 0 -10
-5 -10 -11z"/>
<path d="M6476 5583 c-6 -14 -5 -15 5 -6 7 7 10 15 7 18 -3 3 -9 -2 -12 -12z"/>
<path d="M6540 5556 c0 -9 -7 -13 -20 -11 -11 2 -20 -1 -20 -6 0 -18 55 -5 58
14 2 9 -1 17 -7 17 -6 0 -11 -6 -11 -14z"/>
<path d="M6841 5544 c0 -11 3 -14 6 -6 3 7 2 16 -1 19 -3 4 -6 -2 -5 -13z"/>
<path d="M4500 5371 c0 -5 7 -12 16 -15 14 -5 15 -4 4 9 -14 17 -20 19 -20 6z"/>
<path d="M4471 5341 c-8 -5 -9 -11 -3 -15 5 -3 12 1 16 9 6 17 6 18 -13 6z"/>
<path d="M4736 5267 c3 -10 9 -15 12 -12 3 3 0 11 -7 18 -10 9 -11 8 -5 -6z"/>
<path d="M4860 5179 c0 -5 5 -7 10 -4 6 3 10 8 10 11 0 2 -4 4 -10 4 -5 0 -10
-5 -10 -11z"/>
<path d="M5005 5110 c3 -5 8 -10 11 -10 2 0 4 5 4 10 0 6 -5 10 -11 10 -5 0
-7 -4 -4 -10z"/>
<path d="M3707 4959 c7 -7 15 -10 18 -7 3 3 -2 9 -12 12 -14 6 -15 5 -6 -5z"/>
<path d="M3595 4930 c-3 -5 -1 -10 4 -10 6 0 11 5 11 10 0 6 -2 10 -4 10 -3 0
-8 -4 -11 -10z"/>
<path d="M3550 4891 c0 -12 28 -22 35 -12 3 5 -2 12 -11 15 -21 8 -24 8 -24
-3z"/>
<path d="M8170 4610 c0 -5 5 -10 11 -10 5 0 7 5 4 10 -3 6 -8 10 -11 10 -2 0
-4 -4 -4 -10z"/>
<path d="M3100 3279 c0 -5 5 -7 10 -4 6 3 10 8 10 11 0 2 -4 4 -10 4 -5 0 -10
-5 -10 -11z"/>
<path d="M2437 1524 c-13 -13 -7 -24 14 -24 11 0 19 5 17 12 -5 14 -22 21 -31
12z"/>
<path d="M2461 1477 c-14 -14 -14 -37 -1 -37 6 0 9 3 9 8 -1 4 -1 14 1 22 1
11 3 10 9 -4 6 -17 8 -17 14 -4 7 20 -16 31 -32 15z"/>
<path d="M2461 1414 c0 -11 3 -14 6 -6 3 7 2 16 -1 19 -3 4 -6 -2 -5 -13z"/>
</g>
</svg>
